<svg width="160" height="40" viewBox="0 0 160 40" fill="none" xmlns="http://www.w3.org/2000/svg">
<g id="Layer 2">
<g id="Board1">
<g id="LogoSet2">
<g id="NonMainIcon">
<path id="Vector" opacity="0.1" d="M37.0022 0H2.54049C1.13742 0 0 1.13742 0 2.54049V37.4595C0 38.8626 1.13742 40 2.54049 40H37.0022C38.4053 40 39.5427 38.8626 39.5427 37.4595V2.54049C39.5427 1.13742 38.4053 0 37.0022 0Z" fill="#EAC9FF"/>
<path id="Vector_2" d="M10.251 10.2509L29.9906 10.1874L19.3078 20.3239H29.5587V29.7491H10.251V10.2509Z" fill="url(#paint0_linear_1643_35997)"/>
<path id="Vector_3" d="M29.5586 20.324L39.5427 10.2509V29.7492L29.5586 20.324Z" fill="url(#paint1_linear_1643_35997)"/>
</g>
<g id="Gear">
<path id="Vector_4" d="M142.356 13.2232C141.49 12.1194 140.393 11.2178 139.142 10.5811C137.675 9.8541 136.054 9.4924 134.417 9.5268C132.49 9.50495 130.595 10.0182 128.942 11.0094C127.289 12.0006 125.944 13.431 125.055 15.1413C124.391 16.3908 123.961 17.7511 123.785 19.1553C123.642 17.6718 123.211 16.2305 122.515 14.9126C121.594 13.2281 120.204 11.847 118.514 10.9368C116.741 9.97661 114.75 9.49091 112.734 9.5268C110.657 9.48684 108.604 9.98574 106.777 10.9749C105.062 11.9367 103.663 13.3751 102.75 15.1159C102.19 16.2306 101.808 17.4265 101.619 18.6599V16.9577H85.6525V20.7685H96.5385C96.2884 23.0129 95.2376 25.0919 93.5788 26.6243C91.8396 28.1101 89.6019 28.8818 87.3165 28.7837C85.5409 28.8115 83.7891 28.3735 82.2355 27.5135C80.7399 26.6445 79.5236 25.3665 78.7296 23.8298C77.8597 22.129 77.4233 20.2396 77.4594 18.3296C77.4249 16.4238 77.8612 14.5389 78.7296 12.8421C79.5289 11.3191 80.7448 10.0547 82.2355 9.19653C83.7873 8.33196 85.5404 7.89369 87.3165 7.92629C88.9228 7.89345 90.5106 8.27399 91.9275 9.0314C93.2704 9.78068 94.3553 10.9187 95.0396 12.2959H100.73C99.7433 9.64192 97.914 7.38431 95.5223 5.86849C93.1747 4.45421 90.499 3.6764 87.7591 3.6118C85.0192 3.5472 82.3098 4.19805 79.8983 5.50012C77.6651 6.73109 75.8113 8.5497 74.5378 10.7589C73.2049 13.0748 72.5245 15.7087 72.5689 18.3804C72.5245 21.0521 73.2049 23.686 74.5378 26.0019C75.811 28.2026 77.654 30.0194 79.8728 31.2607C82.1481 32.4773 84.699 33.0855 87.2784 33.0263C89.6739 33.0565 92.038 32.4797 94.1504 31.3496C95.9722 30.3772 97.5596 29.0185 98.8015 27.3685C100.043 25.7185 100.91 23.8171 101.34 21.7974C101.358 23.7953 101.854 25.7597 102.788 27.5262C103.721 29.2924 105.135 30.7587 106.866 31.7561C108.659 32.7534 110.683 33.2615 112.734 33.2296C115.147 33.3144 117.521 32.6049 119.492 31.2099C121.279 29.9354 122.614 28.1245 123.303 26.04H118.133C117.66 27.0534 116.891 27.8996 115.927 28.4666C114.963 29.0336 113.85 29.2947 112.734 29.2156C111.081 29.2571 109.476 28.6613 108.25 27.5516C107.016 26.4093 106.285 24.8242 106.218 23.1438H123.709C123.703 23.1017 123.703 23.0589 123.709 23.0168C123.848 24.5616 124.279 26.0659 124.979 27.45C125.862 29.1903 127.207 30.6538 128.866 31.6799C130.483 32.6928 132.357 33.2217 134.265 33.2042C135.908 33.2292 137.533 32.8589 139.003 32.1245C140.287 31.4838 141.408 30.5584 142.28 29.4188V32.8231H147.056V9.95868H142.28L142.356 13.2232ZM106.256 19.295C106.399 17.6782 107.142 16.1736 108.339 15.0778C109.485 14.0402 110.985 13.4811 112.531 13.5154C114.185 13.4605 115.801 14.0218 117.066 15.0905C117.663 15.6138 118.14 16.261 118.462 16.9871C118.785 17.7131 118.945 18.5006 118.933 19.295H106.256ZM141.378 25.4049C140.797 26.5168 139.917 27.4449 138.838 28.0851C137.808 28.6917 136.635 29.0116 135.44 29.0116C134.245 29.0116 133.071 28.6917 132.042 28.0851C130.959 27.4324 130.079 26.4912 129.501 25.3667C128.824 24.0893 128.487 22.6587 128.523 21.2131C128.483 19.7873 128.82 18.3762 129.501 17.1229C130.081 16.0518 130.943 15.1593 131.993 14.5415C133.042 13.9237 134.241 13.6041 135.459 13.617C136.655 13.6116 137.831 13.9275 138.863 14.5316C139.938 15.1654 140.818 16.0842 141.403 17.1864C142.079 18.4511 142.416 19.8687 142.382 21.302C142.402 22.7327 142.056 24.1449 141.378 25.4049Z" fill="url(#paint2_linear_1643_35997)"/>
<path id="Vector_5" d="M155.592 10.5049C154.446 11.1517 153.491 12.0894 152.823 13.2232V9.89519H148.085V32.7596H152.823V20.7431C152.823 18.4185 153.306 16.7799 154.258 15.8399C154.833 15.3375 155.502 14.9542 156.226 14.7121C156.95 14.4701 157.714 14.3742 158.476 14.43H159.682V9.52682C158.257 9.48965 156.847 9.82689 155.592 10.5049Z" fill="url(#paint3_linear_1643_35997)"/>
</g>
<g id="7th">
<g id="7">
<path id="Vector_6" d="M67.6148 4.52209H49.2725V10.8987H66.4081L67.6148 8.86633V4.52209Z" fill="black"/>
<path id="Vector_7" d="M60.5022 33.1661L67.6156 20.1842V10.8987H66.4088L53.9858 33.1661H60.5022Z" fill="black"/>
</g>
<path id="Vector_8" d="M70.1046 8.57424C69.9955 8.58244 69.8859 8.56744 69.783 8.53022C69.6801 8.493 69.5862 8.43441 69.5076 8.3583C69.4218 8.2576 69.3582 8.13993 69.321 8.01298C69.2838 7.88602 69.2738 7.75264 69.2917 7.62155V6.13537H68.9741V5.75429H69.2917V4.95404H69.7617V5.75429H70.6127V6.13537H69.7617V7.78669C69.7505 7.85823 69.7505 7.93108 69.7617 8.00263C69.7954 8.05721 69.8439 8.10122 69.9014 8.12965C69.9852 8.14712 70.0717 8.14712 70.1554 8.12965H70.3714H70.5238V8.54883H70.2571L70.1046 8.57424Z" fill="black"/>
<path id="Vector_9" d="M73.1028 8.52338H72.6328V6.94828C72.6394 6.82981 72.6394 6.71107 72.6328 6.59261C72.6189 6.50719 72.5887 6.42525 72.5439 6.35126C72.5139 6.28062 72.4657 6.21924 72.4041 6.17343C72.3124 6.15082 72.2165 6.15082 72.1247 6.17343C72.0005 6.17262 71.8782 6.20321 71.769 6.26234C71.6379 6.32921 71.5143 6.41014 71.4006 6.50369V8.52338H70.9434V4.71265H71.4006V6.10992C71.5247 5.99522 71.6662 5.9009 71.8198 5.83046C71.9541 5.76395 72.1019 5.72919 72.2517 5.72884C72.3708 5.72321 72.4896 5.74423 72.5994 5.79038C72.7093 5.83653 72.8075 5.90664 72.8868 5.99559C73.0536 6.22288 73.1346 6.50187 73.1155 6.78315L73.1028 8.52338Z" fill="black"/>
</g>
</g>
</g>
</g>
<defs>
<linearGradient id="paint0_linear_1643_35997" x1="10.251" y1="19.9683" x2="29.9906" y2="19.9683" gradientUnits="userSpaceOnUse">
<stop stop-color="#BD00CD"/>
<stop offset="1" stop-color="#2D396C"/>
</linearGradient>
<linearGradient id="paint1_linear_1643_35997" x1="29.5586" y1="20.0064" x2="39.5427" y2="20.0064" gradientUnits="userSpaceOnUse">
<stop stop-color="#BA01CB"/>
<stop offset="1" stop-color="#31376F"/>
</linearGradient>
<linearGradient id="paint2_linear_1643_35997" x1="83.7979" y1="18.355" x2="166.542" y2="18.355" gradientUnits="userSpaceOnUse">
<stop offset="0.33" stop-color="#B902CA"/>
<stop offset="1" stop-color="#32376F"/>
</linearGradient>
<linearGradient id="paint3_linear_1643_35997" x1="138.114" y1="21.1623" x2="166.161" y2="21.1623" gradientUnits="userSpaceOnUse">
<stop stop-color="#B902CA"/>
<stop offset="1" stop-color="#32376F"/>
</linearGradient>
</defs>
</svg>
