<svg width="40" height="41" viewBox="0 0 40 41" fill="none" xmlns="http://www.w3.org/2000/svg">
<path d="M39.4997 14.3443C38.4124 7.57481 33.0501 2.21262 26.2807 1.12537C24.2358 0.796961 22.1386 0.625 20 0.625C17.8614 0.625 15.7642 0.796906 13.7193 1.12537C6.94986 2.21262 1.58762 7.57481 0.500359 14.3443C0.171953 16.3892 0 18.4863 0 20.625C0 22.7637 0.171898 24.8608 0.500359 26.9057C1.58762 33.6752 6.94992 39.0373 13.7193 40.1247C15.7642 40.453 17.8614 40.625 20 40.625C22.1386 40.625 24.2358 40.4531 26.2807 40.1247C33.0502 39.0373 38.4124 33.6752 39.4997 26.9057C39.8281 24.8608 40 22.7637 40 20.625C40 18.4863 39.8281 16.3892 39.4997 14.3443Z" fill="url(#paint0_linear_33_1916)"/>
<path d="M11.9435 23.6919H6.98277C6.63471 23.6919 6.32374 23.4841 6.19055 23.1626C6.05736 22.841 6.13032 22.4742 6.37645 22.2281L9.81258 18.792H7.34984C6.6733 18.792 6.12486 18.2435 6.12486 17.567H10.6997C11.0477 17.567 11.3588 17.7747 11.4919 18.0962C11.6252 18.4178 11.5522 18.7846 11.3062 19.0308L7.87001 22.4669H10.7185C11.3951 22.4669 11.9435 23.0153 11.9435 23.6919ZM33.8707 19.8638C33.8707 18.5467 32.7991 17.4752 31.482 17.4752C30.7774 17.4752 30.1433 17.7819 29.7057 18.2687C29.2682 17.7819 28.6341 17.4752 27.9295 17.4752C26.6124 17.4752 25.5408 18.5467 25.5408 19.8638V23.6919C26.2173 23.6919 26.7658 23.1435 26.7658 22.4669V19.8638C26.7658 19.2222 27.2878 18.7001 27.9295 18.7001C28.5712 18.7001 29.0932 19.2222 29.0932 19.8638V22.4669C29.0932 23.1435 29.6417 23.6919 30.3183 23.6919V19.8638C30.3183 19.2222 30.8403 18.7001 31.482 18.7001C32.1237 18.7001 32.6457 19.2222 32.6457 19.8638V22.4669C32.6457 23.1435 33.1942 23.6919 33.8707 23.6919V19.8638ZM24.9283 20.6294C24.9283 22.3715 23.5161 23.7838 21.774 23.7838C20.0319 23.7838 18.6197 22.3715 18.6197 20.6294C18.6197 18.8873 20.0319 17.4752 21.774 17.4752C23.5161 17.4752 24.9283 18.8873 24.9283 20.6294ZM23.7033 20.6294C23.7033 19.5639 22.8395 18.7001 21.774 18.7001C20.7084 18.7001 19.8447 19.5639 19.8447 20.6294C19.8447 21.695 20.7084 22.5588 21.774 22.5588C22.8395 22.5588 23.7033 21.695 23.7033 20.6294ZM18.1297 20.6294C18.1297 22.3715 16.7174 23.7838 14.9753 23.7838C13.2332 23.7838 11.821 22.3715 11.821 20.6294C11.821 18.8873 13.2332 17.4752 14.9753 17.4752C16.7174 17.4752 18.1297 18.8873 18.1297 20.6294ZM16.9047 20.6294C16.9047 19.5639 16.0409 18.7001 14.9753 18.7001C13.9098 18.7001 13.046 19.5639 13.046 20.6294C13.046 21.695 13.9098 22.5588 14.9753 22.5588C16.0409 22.5588 16.9047 21.695 16.9047 20.6294Z" fill="white"/>
<defs>
<linearGradient id="paint0_linear_33_1916" x1="9.46642" y1="38.8697" x2="30.5336" y2="2.3803" gradientUnits="userSpaceOnUse">
<stop stop-color="#0845BF"/>
<stop offset="0.6" stop-color="#0B5CFF"/>
<stop offset="1" stop-color="#4F90EE"/>
</linearGradient>
</defs>
</svg>
