<svg width="58" height="41" viewBox="0 0 58 41" fill="none" xmlns="http://www.w3.org/2000/svg">
<g id="salesforce_logo.svg" clip-path="url(#clip0_33_1902)">
<g id="Group">
<g id="Mask group">
<mask id="mask0_33_1902" style="mask-type:luminance" maskUnits="userSpaceOnUse" x="0" y="0" width="57" height="41">
<g id="Group_2">
<path id="Vector" d="M0.0126953 0.729736H56.9978V40.6125H0.0126953V0.729736Z" fill="white"/>
</g>
</mask>
<g mask="url(#mask0_33_1902)">
<path id="Vector_2" fill-rule="evenodd" clip-rule="evenodd" d="M23.719 5.08094C25.5571 3.16597 28.1164 1.97769 30.9468 1.97769C34.7091 1.97769 37.992 4.0757 39.7397 7.19068C41.3034 6.49195 42.9972 6.13182 44.7099 6.13392C51.4961 6.13392 56.9977 11.6835 56.9977 18.5295C56.9977 25.3756 51.4961 30.9253 44.7099 30.9253C43.8813 30.9253 43.072 30.842 42.2892 30.6841C40.7502 33.4294 37.8161 35.2847 34.4494 35.2847C33.0877 35.2866 31.7435 34.9772 30.5196 34.3802C28.9594 38.0512 25.3229 40.625 21.0861 40.625C16.6729 40.625 12.9116 37.833 11.4689 33.9172C10.8259 34.0528 10.1705 34.1211 9.5133 34.1207C4.25906 34.1207 0 29.8171 0 24.5084C0 20.9503 1.9133 17.8439 4.75707 16.1821C4.15456 14.7947 3.84451 13.298 3.84628 11.7854C3.84628 5.67968 8.80272 0.729736 14.9166 0.729736C18.5062 0.729736 21.6963 2.43612 23.719 5.08094Z" fill="#00A1E0"/>
</g>
</g>
<path id="Vector_3" fill-rule="evenodd" clip-rule="evenodd" d="M8.25514 21.4184C8.21933 21.5118 8.26791 21.5313 8.27943 21.5479C8.38645 21.6253 8.49514 21.6815 8.60488 21.7445C9.18603 22.0522 9.73535 22.1424 10.3092 22.1424C11.4784 22.1424 12.2047 21.5208 12.2047 20.5198V20.5001C12.2047 19.5745 11.3848 19.2381 10.6164 18.9954L10.5161 18.9629C9.93661 18.7749 9.4365 18.6122 9.4365 18.2304V18.2109C9.4365 17.884 9.72886 17.6438 10.1818 17.6438C10.6855 17.6438 11.2824 17.8111 11.6673 18.0237C11.6673 18.0237 11.7808 18.097 11.8221 17.9874C11.8445 17.9282 12.039 17.4042 12.0597 17.3474C12.0819 17.2861 12.043 17.2398 12.003 17.2159C11.5634 16.9481 10.9563 16.7659 10.3278 16.7659L10.2112 16.7663C9.141 16.7663 8.39378 17.4134 8.39378 18.3395V18.3594C8.39378 19.3353 9.21807 19.6526 9.99022 19.8731L10.1142 19.9116C10.6765 20.0842 11.1622 20.2333 11.1622 20.6289V20.6486C11.1622 21.0109 10.8466 21.28 10.3383 21.28C10.1412 21.28 9.5121 21.2767 8.83231 20.8467C8.75001 20.7987 8.7031 20.7642 8.63964 20.7255C8.60613 20.7051 8.52237 20.6685 8.48593 20.7782L8.25514 21.4184ZM25.3714 21.4184C25.3356 21.5118 25.3841 21.5313 25.3961 21.5479C25.5027 21.6253 25.6116 21.6815 25.7211 21.7445C26.3025 22.0522 26.8518 22.1424 27.4254 22.1424C28.5946 22.1424 29.3211 21.5208 29.3211 20.5198V20.5001C29.3211 19.5745 28.5014 19.2381 27.7328 18.9954L27.6325 18.9629C27.053 18.7749 26.5527 18.6122 26.5527 18.2304V18.2109C26.5527 17.884 26.8453 17.6438 27.2985 17.6438C27.8019 17.6438 28.3986 17.8111 28.7835 18.0237C28.7835 18.0237 28.897 18.097 28.9385 17.9874C28.9607 17.9282 29.1555 17.4042 29.176 17.3474C29.1984 17.2861 29.1592 17.2398 29.1194 17.2159C28.6796 16.9481 28.0727 16.7659 27.4443 16.7659L27.3274 16.7663C26.2574 16.7663 25.5102 17.4134 25.5102 18.3395V18.3594C25.5102 19.3353 26.3343 19.6526 27.1067 19.8731L27.2304 19.9116C27.7929 20.0842 28.2786 20.2333 28.2786 20.6289V20.6486C28.2786 21.0109 27.9628 21.28 27.4549 21.28C27.2574 21.28 26.6283 21.2767 25.9488 20.8467C25.8664 20.7987 25.8183 20.7657 25.7559 20.7255C25.7347 20.712 25.6361 20.6735 25.6024 20.7782L25.3714 21.4184ZM37.0562 19.4574C37.0562 20.0228 36.9506 20.4693 36.7433 20.7841C36.5372 21.0961 36.2262 21.248 35.7925 21.248C35.3588 21.248 35.0495 21.0963 34.8468 20.7845C34.6422 20.4695 34.5383 20.0228 34.5383 19.4574C34.5383 18.8924 34.6422 18.4473 34.8468 18.1357C35.0495 17.8268 35.3588 17.6769 35.7925 17.6769C36.2262 17.6769 36.5372 17.827 36.7433 18.1359C36.9511 18.4473 37.0562 18.8924 37.0562 19.4574ZM38.0325 18.4088C37.9364 18.0844 37.7871 17.799 37.5883 17.5608C37.3892 17.3221 37.1372 17.1301 36.8386 16.991C36.5404 16.8517 36.1885 16.7812 35.7925 16.7812C35.3965 16.7812 35.0445 16.8517 34.746 16.991C34.4478 17.1301 34.1957 17.3221 33.9965 17.5613C33.798 17.7998 33.6482 18.0848 33.5525 18.4088C33.4572 18.7307 33.4089 19.0836 33.4089 19.4574C33.4089 19.8314 33.4572 20.1845 33.5525 20.506C33.6482 20.8297 33.7975 21.115 33.9967 21.3539C34.1959 21.5931 34.4486 21.7835 34.7465 21.9192C35.0451 22.0549 35.3969 22.124 35.7925 22.124C36.1883 22.124 36.5397 22.0549 36.8382 21.9192C37.1364 21.7835 37.3888 21.5931 37.5883 21.3539C37.7871 21.1158 37.9364 20.8302 38.0325 20.506C38.1276 20.1839 38.176 19.831 38.176 19.4574C38.176 19.084 38.1276 18.7309 38.0325 18.4088ZM46.0466 21.0966C46.0145 21.0017 45.9219 21.0375 45.9219 21.0375C45.7802 21.0917 45.6294 21.142 45.4681 21.1671C45.3056 21.1927 45.1257 21.2055 44.9333 21.2055C44.4614 21.2055 44.0855 21.0649 43.8172 20.7872C43.5477 20.5093 43.3963 20.0603 43.398 19.453C43.3994 18.9009 43.533 18.485 43.7726 18.168C44.0101 17.853 44.3728 17.6913 44.8551 17.6913C45.2579 17.6913 45.5651 17.738 45.887 17.839C45.887 17.839 45.9634 17.8723 46.0001 17.7715C46.0857 17.5342 46.149 17.3655 46.2403 17.1047C46.2662 17.0304 46.2026 16.999 46.1793 16.99C46.0528 16.9405 45.754 16.8595 45.5284 16.8253C45.3175 16.7931 45.0711 16.7763 44.7961 16.7763C44.3862 16.7763 44.0208 16.8465 43.7083 16.9856C43.3965 17.1244 43.132 17.3162 42.9224 17.5548C42.7127 17.7937 42.5532 18.0792 42.4476 18.4029C42.3418 18.725 42.2884 19.0785 42.2884 19.4534C42.2884 20.2628 42.5069 20.9169 42.9377 21.396C43.3699 21.8769 44.0183 22.1211 44.8646 22.1211C45.3645 22.1211 45.8773 22.0199 46.2468 21.8746C46.2468 21.8746 46.3171 21.8406 46.2866 21.7585L46.0466 21.0966ZM47.7542 18.9152C47.8009 18.6008 47.887 18.3397 48.0212 18.1357C48.2237 17.8268 48.532 17.6565 48.9657 17.6565C49.3996 17.6565 49.6855 17.827 49.8916 18.1359C50.0277 18.3401 50.0872 18.6122 50.1104 18.9156L47.7542 18.9152ZM51.0399 18.2247C50.9567 17.9118 50.7519 17.5958 50.6172 17.4513C50.4047 17.2222 50.1965 17.0618 49.9898 16.9732C49.6907 16.8461 49.3689 16.7807 49.0438 16.7812C48.6315 16.7812 48.2568 16.8509 47.9529 16.9933C47.6487 17.1361 47.3929 17.3313 47.1925 17.5738C46.9917 17.8161 46.8411 18.1045 46.745 18.4316C46.6486 18.7569 46.6001 19.1114 46.6001 19.4859C46.6001 19.8666 46.6505 20.2216 46.7498 20.5407C46.8501 20.8626 47.0112 21.1451 47.2285 21.3803C47.4457 21.6163 47.7253 21.8015 48.0593 21.9305C48.3917 22.0593 48.7955 22.1261 49.2585 22.1246C50.213 22.1215 50.715 21.9087 50.9224 21.7941C50.959 21.7736 50.9936 21.7382 50.9504 21.6362L50.7343 21.0314C50.7012 20.9412 50.6099 20.9738 50.6099 20.9738C50.373 21.0622 50.0378 21.2199 49.2537 21.2182C48.7414 21.2174 48.3619 21.066 48.1234 20.8295C47.8794 20.5876 47.7596 20.2325 47.7393 19.7307L51.0424 19.7332C51.0424 19.7332 51.1295 19.7324 51.1385 19.6473C51.1421 19.6122 51.2518 18.9688 51.0399 18.2247ZM21.2958 18.9152C21.3425 18.6008 21.4288 18.3397 21.5628 18.1357C21.7655 17.8268 22.0734 17.6565 22.5075 17.6565C22.9414 17.6565 23.2273 17.827 23.4334 18.1359C23.5693 18.3401 23.6288 18.6122 23.652 18.9156L21.2958 18.9152ZM24.5814 18.2247C24.4985 17.9118 24.2935 17.5958 24.159 17.4513C23.9464 17.2222 23.7385 17.0618 23.5316 16.9732C23.2324 16.8461 22.9107 16.7808 22.5856 16.7812C22.1733 16.7812 21.7986 16.8509 21.4947 16.9933C21.1904 17.1361 20.9347 17.3313 20.7339 17.5738C20.5335 17.8161 20.3829 18.1045 20.2863 18.4316C20.1902 18.7569 20.1418 19.1114 20.1418 19.4859C20.1418 19.8666 20.1919 20.2216 20.2918 20.5407C20.3919 20.8626 20.5532 21.1451 20.7701 21.3803C20.9875 21.6163 21.2669 21.8015 21.6009 21.9305C21.9335 22.0593 22.3368 22.1261 22.8003 22.1246C23.7546 22.1215 24.2568 21.9087 24.4641 21.7941C24.5006 21.7736 24.5353 21.7382 24.492 21.6362L24.2761 21.0314C24.2428 20.9412 24.1515 20.9738 24.1515 20.9738C23.9148 21.0622 23.5795 21.2199 22.7952 21.2182C22.2832 21.2174 21.9035 21.066 21.665 20.8295C21.4212 20.5876 21.3012 20.2325 21.2809 19.7307L24.5841 19.7332C24.5841 19.7332 24.6713 19.7324 24.6803 19.6473C24.6838 19.6122 24.7936 18.9688 24.5814 18.2247ZM14.155 21.0785C14.0254 20.9751 14.0074 20.9497 13.9645 20.8825C13.8989 20.7814 13.8654 20.6373 13.8654 20.4528C13.8654 20.1627 13.9617 19.9537 14.1603 19.8134C14.1582 19.8138 14.4451 19.5659 15.1184 19.5747C15.4188 19.58 15.7184 19.6055 16.0153 19.6511V21.1527H16.0158C16.0158 21.1527 15.5959 21.2429 15.1232 21.2714C14.4514 21.3118 14.1529 21.0779 14.155 21.0785ZM15.4696 18.7569C15.3356 18.747 15.1619 18.7422 14.9538 18.7422C14.6708 18.7422 14.3971 18.7774 14.1402 18.8465C13.8822 18.916 13.6501 19.0237 13.4505 19.1663C13.2511 19.3088 13.0871 19.4952 12.9712 19.7112C12.8541 19.9292 12.7944 20.1853 12.7944 20.4725C12.7944 20.7655 12.8453 21.0193 12.9458 21.2266C13.0442 21.4322 13.1922 21.61 13.3766 21.7439C13.5603 21.8775 13.7869 21.9755 14.0497 22.0354C14.3092 22.0947 14.6032 22.1246 14.9245 22.1246C15.2637 22.1246 15.6011 22.0961 15.928 22.0411C16.2065 21.9931 16.4839 21.9392 16.7601 21.8794C16.8702 21.854 16.9917 21.8207 16.9917 21.8207C17.0734 21.8 17.0671 21.7127 17.0671 21.7127L17.0652 18.6915C17.0652 18.0289 16.8884 17.538 16.5402 17.2331C16.1936 16.9296 15.6832 16.7763 15.0229 16.7763C14.7749 16.7763 14.3766 16.8098 14.1374 16.8578C14.1374 16.8578 13.4162 16.9977 13.1192 17.2304C13.1192 17.2304 13.0539 17.2706 13.0895 17.3617L13.3234 17.99C13.3525 18.0714 13.4319 18.0436 13.4319 18.0436C13.4319 18.0436 13.4568 18.0337 13.4861 18.0163C14.1215 17.6708 14.9255 17.6811 14.9255 17.6811C15.2824 17.6811 15.5573 17.7533 15.7421 17.8947C15.9224 18.0331 16.0139 18.2415 16.0139 18.6819V18.8216C15.7305 18.7805 15.4696 18.7569 15.4696 18.7569ZM42.1157 17.0549C42.1204 17.0438 42.1229 17.0319 42.123 17.0199C42.1231 17.0079 42.1207 16.996 42.1161 16.9849C42.1114 16.9738 42.1046 16.9637 42.096 16.9553C42.0874 16.9469 42.0772 16.9403 42.066 16.9359C42.0097 16.9146 41.7289 16.8553 41.5123 16.8419C41.097 16.8159 40.8669 16.8859 40.6604 16.9789C40.4556 17.0712 40.2288 17.2205 40.1023 17.3908L40.1018 16.9879C40.1018 16.9326 40.0627 16.888 40.007 16.888H39.1601C39.1052 16.888 39.0654 16.9326 39.0654 16.9879V21.916C39.0655 21.9426 39.076 21.9681 39.0948 21.9869C39.1136 22.0057 39.1391 22.0163 39.1657 22.0163H40.0338C40.0603 22.0163 40.0858 22.0057 40.1046 21.9869C40.1233 21.9681 40.1339 21.9426 40.1339 21.916V19.4542C40.1339 19.1236 40.1703 18.7941 40.243 18.587C40.3146 18.382 40.412 18.2186 40.5326 18.1012C40.6469 17.9878 40.7869 17.9036 40.9406 17.8557C41.0847 17.8144 41.2338 17.7934 41.3837 17.7933C41.5565 17.7933 41.7467 17.8377 41.7467 17.8377C41.8103 17.8448 41.8457 17.8059 41.8673 17.7485C41.924 17.5975 42.0849 17.1449 42.1157 17.0549Z" fill="#FFFFFE"/>
<path id="Vector_4" fill-rule="evenodd" clip-rule="evenodd" d="M33.969 14.7711C33.8619 14.7387 33.7528 14.7128 33.6425 14.6936C33.4942 14.6688 33.3439 14.6572 33.1935 14.6588C32.596 14.6588 32.1251 14.8276 31.7944 15.161C31.466 15.4919 31.2425 15.996 31.1305 16.6593L31.0901 16.8831H30.3401C30.3401 16.8831 30.2486 16.8794 30.2293 16.9793L30.1062 17.6662C30.0976 17.7319 30.1259 17.773 30.2139 17.7726H30.9439L30.2032 21.9072C30.1452 22.2402 30.0788 22.5141 30.0053 22.7217C29.9328 22.9265 29.862 23.08 29.7749 23.1914C29.6905 23.2993 29.6105 23.3786 29.4725 23.4249C29.3586 23.4632 29.2275 23.4808 29.0838 23.4808C29.0038 23.4808 28.8974 23.4674 28.8189 23.4517C28.7403 23.4362 28.6995 23.4186 28.6407 23.3939C28.6407 23.3939 28.555 23.3612 28.5213 23.4471C28.4939 23.5173 28.2993 24.0523 28.2763 24.1185C28.2528 24.1839 28.2857 24.2354 28.3271 24.2503C28.4243 24.285 28.4966 24.3072 28.6289 24.3384C28.8128 24.3818 28.9678 24.3845 29.1129 24.3845C29.417 24.3845 29.6941 24.3418 29.9238 24.2588C30.155 24.1753 30.3563 24.0297 30.5343 23.8327C30.7267 23.6201 30.8478 23.3975 30.9636 23.0938C31.0781 22.7929 31.1757 22.4193 31.2538 21.9839L31.9981 17.7726H33.0863C33.0863 17.7726 33.178 17.7759 33.1971 17.6764L33.3202 16.9895C33.3288 16.9238 33.3008 16.8827 33.2124 16.8831H32.1563C32.1615 16.8593 32.2095 16.4877 32.3307 16.138C32.3824 15.9887 32.4798 15.8683 32.5623 15.7855C32.6394 15.7068 32.7343 15.6477 32.839 15.6134C32.9538 15.5779 33.0734 15.5607 33.1935 15.5623C33.293 15.5623 33.3906 15.5742 33.465 15.5897C33.5674 15.6115 33.6071 15.623 33.634 15.631C33.7416 15.6639 33.7561 15.632 33.7772 15.5799L34.0298 14.8863C34.0557 14.8117 33.9925 14.7803 33.969 14.7711ZM19.2101 21.916C19.2101 21.9713 19.1707 22.0163 19.1154 22.0163H18.2394C18.1839 22.0163 18.1445 21.9713 18.1445 21.916V14.8651C18.1445 14.81 18.1839 14.7654 18.2394 14.7654H19.1154C19.1707 14.7654 19.2101 14.81 19.2101 14.8651V21.916Z" fill="#FFFFFE"/>
</g>
</g>
<defs>
<clipPath id="clip0_33_1902">
<rect width="57.1728" height="40" fill="white" transform="translate(0 0.625)"/>
</clipPath>
</defs>
</svg>
