<svg width="36" height="24" viewBox="0 0 36 24" fill="none" xmlns="http://www.w3.org/2000/svg">
<g id="camera">
<path d="M3.18905 0C1.81908 0 0.708496 1.27919 0.708496 2.85714V16.7143C0.708496 20.7381 3.54048 24 7.03391 24L21.7279 23.8572C23.0979 23.8572 24.2085 22.578 24.2085 21V7.00005C24.2085 2.97626 20.8478 4.95911e-05 17.3543 4.95911e-05L3.18905 0Z" fill="white"/>
<path d="M27.5616 5.4552C26.6751 6.35032 26.1668 7.64222 26.1668 9.00005V14.7986C26.1668 16.1564 26.6751 17.4483 27.5616 18.3435L33.0774 23.3049C34.1998 24.4383 35.9585 23.5203 35.9585 21.801V2.27032C35.9585 0.551092 34.1998 -0.36693 33.0774 0.766445L27.5616 5.4552Z" fill="white"/>
</g>
</svg>
