<svg xmlns="http://www.w3.org/2000/svg" xmlns:xlink="http://www.w3.org/1999/xlink" viewBox="0 0 31 31"><defs><style>.cls-1{fill:url(#linear-gradient);}.cls-2{fill:url(#linear-gradient-2);}.cls-3{fill:url(#linear-gradient-3);}.cls-4{fill:url(#linear-gradient-4);}.cls-5{fill:url(#linear-gradient-5);}.cls-6{fill:url(#linear-gradient-6);}.cls-7{fill:url(#linear-gradient-7);}</style><linearGradient id="linear-gradient" x1="26.56" y1="8.67" x2="19.97" y2="15.27" gradientUnits="userSpaceOnUse"><stop offset="0" stop-color="#2d396c"/><stop offset="1" stop-color="#bd00cd"/></linearGradient><linearGradient id="linear-gradient-2" x1="7.62" y1="27.45" x2="31.13" y2="27.45" xlink:href="#linear-gradient"/><linearGradient id="linear-gradient-3" y1="4.04" x2="31.13" y2="4.04" gradientUnits="userSpaceOnUse"><stop offset="0" stop-color="#bd00cd"/><stop offset="1" stop-color="#2d396c"/></linearGradient><linearGradient id="linear-gradient-4" x1="4.04" y1="8.83" x2="4.04" y2="30.7" gradientTransform="translate(-15.75 23.82) rotate(-90)" xlink:href="#linear-gradient-3"/><linearGradient id="linear-gradient-5" x1="22.51" y1="19.01" x2="29.84" y2="25.73" gradientUnits="userSpaceOnUse"><stop offset="0" stop-color="#2d396c"/><stop offset="0.73" stop-color="#bd00cd"/></linearGradient><linearGradient id="linear-gradient-6" x1="65.07" y1="16.56" x2="130.21" y2="16.56" gradientUnits="userSpaceOnUse"><stop offset="0.33" stop-color="#b902ca"/><stop offset="1" stop-color="#32376f"/></linearGradient><linearGradient id="linear-gradient-7" x1="107.83" y1="18.77" x2="129.91" y2="18.77" gradientUnits="userSpaceOnUse"><stop offset="0" stop-color="#b902ca"/><stop offset="1" stop-color="#32376f"/></linearGradient></defs><g xmlns="http://www.w3.org/2000/svg" id="MainIcon"><path class="cls-1" d="M31.13,8.07,23.27,16H15.2l8.41-8Z"/><path class="cls-2" d="M7.62,23.42H31.13a0,0,0,0,1,0,0v6.07a2,2,0,0,1-2,2H7.62a0,0,0,0,1,0,0V23.42A0,0,0,0,1,7.62,23.42Z"/><path class="cls-3" d="M2,0H29.13a2,2,0,0,1,2,2V8.07a0,0,0,0,1,0,0H0a0,0,0,0,1,0,0V2A2,2,0,0,1,2,0Z"/><path class="cls-4" d="M-7.67,15.75H15.75a0,0,0,0,1,0,0v6.07a2,2,0,0,1-2,2H-7.67a0,0,0,0,1,0,0V15.75A0,0,0,0,1-7.67,15.75Z" transform="translate(23.82 15.75) rotate(90)"/><path class="cls-5" d="M31.13,23.42,23.27,16v7.42Z"/></g></svg>