<svg width="41" height="40" viewBox="0 0 41 40" fill="none" xmlns="http://www.w3.org/2000/svg">
<g id="g-calendar">
<path id="Vector" d="M37.5407 0H31.0381V9.42249H40.553V2.6569C40.5556 2.6569 40.0828 0.256954 37.5407 0Z" fill="#1967D2"/>
<path id="Vector_2" d="M31.0405 39.9562V39.9793V39.9999L40.5555 30.5774H40.4702L31.0405 39.9562Z" fill="#1967D2"/>
<path id="Vector_3" d="M40.5547 30.5772V30.4927L40.4702 30.5772H40.5547Z" fill="#FBBC05"/>
<path id="Vector_4" d="M40.5555 9.42261H31.0405V30.4928H40.5555V9.42261Z" fill="#FBBC05"/>
<path id="Vector_5" d="M40.4702 30.5774H31.0405V39.9562L40.4702 30.5774Z" fill="#EA4335"/>
<path id="Vector_6" d="M31.0405 30.5772H40.4702L40.5555 30.4927H31.0405V30.5772Z" fill="#EA4335"/>
<path id="Vector_7" d="M31.0176 39.9796H31.0406V39.9565L31.0176 39.9796Z" fill="#34A853"/>
<path id="Vector_8" d="M9.85645 30.4927V39.9794H31.0177L31.041 30.4927H9.85645Z" fill="#34A853"/>
<path id="Vector_9" d="M31.0406 30.5775V30.4927L31.0176 39.9794L31.0406 39.9563V30.5775Z" fill="#34A853"/>
<path id="Vector_10" d="M0.555664 30.4927V37.0887C0.640919 39.2291 2.95571 39.9794 2.95571 39.9794H9.85619V30.4927H0.555664Z" fill="#188038"/>
<path id="Vector_11" d="M9.85619 9.4225H31.0407V0H3.2244C3.2244 0 0.726174 0.256954 0.555664 2.91129V30.4927H9.85619V9.4225Z" fill="#4285F4"/>
<g id="31">
<path d="M16.7867 26.2277C16.302 26.2277 15.8347 26.1646 15.3846 26.0383C14.9461 25.9121 14.5422 25.7227 14.173 25.4702C13.8037 25.2062 13.4748 24.8791 13.1863 24.4889C12.9094 24.0987 12.6959 23.6453 12.5459 23.1288L14.6749 22.2853C14.825 22.8591 15.0788 23.2953 15.4366 23.5937C15.7943 23.8806 16.2443 24.0241 16.7867 24.0241C17.029 24.0241 17.2598 23.9896 17.4791 23.9208C17.6983 23.8404 17.8887 23.7314 18.0503 23.5937C18.2118 23.456 18.3387 23.2953 18.4311 23.1116C18.5349 22.9165 18.5868 22.6985 18.5868 22.4574C18.5868 21.9524 18.3964 21.5565 18.0156 21.2695C17.6464 20.9826 17.1329 20.8391 16.4751 20.8391H15.4539V18.7904H16.3886C16.6194 18.7904 16.8444 18.7617 17.0636 18.7044C17.2829 18.647 17.4733 18.5609 17.6348 18.4461C17.8079 18.3199 17.9406 18.1649 18.0329 17.9813C18.1368 17.7862 18.1887 17.5624 18.1887 17.3099C18.1887 16.9196 18.0503 16.604 17.7733 16.363C17.4964 16.1105 17.1213 15.9842 16.6482 15.9842C16.1405 15.9842 15.7481 16.122 15.4712 16.3974C15.2058 16.6614 15.0211 16.9598 14.9173 17.2927L12.8402 16.4491C12.944 16.1621 13.0998 15.8695 13.3075 15.5711C13.5152 15.2612 13.7749 14.9857 14.0864 14.7447C14.4095 14.4922 14.7846 14.2914 15.2115 14.1421C15.6385 13.9815 16.1289 13.9011 16.6828 13.9011C17.2483 13.9011 17.7618 13.9815 18.2234 14.1421C18.6965 14.3028 19.1004 14.5266 19.435 14.8136C19.7696 15.089 20.0293 15.4219 20.2139 15.8121C20.3986 16.1908 20.4909 16.604 20.4909 17.0516C20.4909 17.396 20.4447 17.7058 20.3524 17.9813C20.2716 18.2567 20.162 18.5035 20.0235 18.7216C19.885 18.9396 19.7235 19.129 19.5389 19.2897C19.3658 19.4389 19.1869 19.5594 19.0023 19.6512V19.789C19.5562 20.007 20.012 20.3571 20.3697 20.8391C20.739 21.3212 20.9236 21.9295 20.9236 22.664C20.9236 23.1805 20.8255 23.6568 20.6293 24.0929C20.4332 24.5176 20.1505 24.8906 19.7812 25.212C19.4235 25.5333 18.9907 25.7801 18.483 25.9523C17.9753 26.1359 17.4098 26.2277 16.7867 26.2277Z" fill="#4285F4"/>
<path d="M25.0571 25.9523V16.8278L22.9627 17.7058L22.1319 15.7949L25.611 14.1766H27.3247V25.9523H25.0571Z" fill="#4285F4"/>
</g>
</g>
</svg>
