<svg width="45" height="34" viewBox="0 0 45 34" fill="none" xmlns="http://www.w3.org/2000/svg">
<g id="gmail">
<path id="Vector" d="M34.1768 3.0459L22.2026 12.3907L9.95459 3.0459V3.04842L9.96939 3.06105V16.1464L22.0645 25.6932L34.1768 16.5151V3.0459Z" fill="#EA4335"/>
<path id="Vector_2" d="M37.3214 0.772771L34.1768 3.04584V16.515L44.0718 8.91794V4.34149C44.0718 4.34149 42.8707 -2.19485 37.3214 0.772771Z" fill="#FBBC05"/>
<path id="Vector_3" d="M34.1768 16.5153V33.9851H41.7608C41.7608 33.9851 43.9189 33.7629 44.0743 31.3029V8.91821L34.1768 16.5153Z" fill="#34A853"/>
<path id="Vector_4" d="M9.96995 33.9999V16.1462L9.95459 16.1335L9.96995 33.9999Z" fill="#C5221F"/>
<path id="Vector_5" d="M9.95449 3.04858L6.82713 0.788135C1.27781 -2.17948 0.0742188 4.35433 0.0742188 4.35433V8.93077L9.95449 16.1339V3.04858Z" fill="#C5221F"/>
<path id="Vector_6" d="M9.95459 3.04834V16.1336L9.96995 16.1463V3.06097L9.95459 3.04834Z" fill="#C5221F"/>
<path id="Vector_7" d="M0.0742188 8.93311V31.3178C0.227134 33.7803 2.38767 34 2.38767 34H9.97175L9.95449 16.1337L0.0742188 8.93311Z" fill="#4285F4"/>
</g>
</svg>
