<svg width="61" height="60" viewBox="0 0 61 60" fill="none" xmlns="http://www.w3.org/2000/svg">
<path id="Vector" d="M46.6615 19.7558V12.6109C47.65 12.1697 48.4869 11.4693 49.0749 10.5913C49.6629 9.71334 49.9777 8.69392 49.9827 7.6517V7.48777C49.9827 4.44902 47.4038 1.98563 44.2227 1.98563H44.0508C40.8695 1.98563 38.2906 4.44902 38.2906 7.48777V7.6517C38.2956 8.69392 38.6104 9.71334 39.1984 10.5913C39.7864 11.4693 40.6233 12.1697 41.6118 12.6109V19.7558C38.7708 20.1714 36.0952 21.2966 33.8559 23.0176L13.3413 7.75486C13.4876 7.25046 13.5639 6.73178 13.5725 6.21115C13.575 4.98493 13.1967 3.78553 12.4855 2.76469C11.7743 1.74384 10.7621 0.947407 9.57693 0.476125C8.39177 0.00484378 7.08691 -0.120112 5.82739 0.117064C4.56787 0.354239 3.41029 0.942891 2.50106 1.80856C1.59184 2.67423 0.97182 3.77802 0.719433 4.98032C0.467047 6.18262 0.593633 7.42941 1.08318 8.56298C1.57272 9.69655 2.40324 10.666 3.46966 11.3486C4.53609 12.0313 5.79052 12.3965 7.07427 12.3981C8.19733 12.393 9.29935 12.1066 10.2703 11.5675L30.4713 26.5825C26.7574 31.9416 26.8567 38.9259 30.7215 44.1869L24.5774 50.0573C24.0805 49.9057 23.5634 49.8251 23.0419 49.8183C20.0994 49.8207 17.7156 52.1001 17.7164 54.9107C17.7172 57.7211 20.1024 59.9993 23.0447 60C25.9872 60.0007 28.3735 57.7238 28.376 54.9131C28.3691 54.4152 28.2847 53.9209 28.1256 53.4467L34.2037 47.6387C39.6347 51.6323 47.0937 51.9763 52.9024 48.5012C58.7109 45.0259 61.6422 38.4651 60.2504 32.0549C58.8587 25.6444 53.4378 20.7385 46.6615 19.7558ZM44.1421 43.2548C43.0192 43.2837 41.9016 43.0973 40.8554 42.7068C39.8091 42.3163 38.8553 41.7295 38.0504 40.981C37.2455 40.2326 36.6057 39.3377 36.1689 38.3492C35.7321 37.3607 35.507 36.2986 35.507 35.2256C35.507 34.1526 35.7321 33.0905 36.1689 32.102C36.6057 31.1135 37.2455 30.2186 38.0504 29.4702C38.8553 28.7217 39.8091 28.1349 40.8554 27.7444C41.9016 27.3539 43.0192 27.1675 44.1421 27.1964C48.6673 27.3477 52.2545 30.8945 52.257 35.2198C52.259 39.5446 48.6756 43.095 44.1505 43.2507" fill="#FF7A59"/>
</svg>
