<svg width="35" height="36" viewBox="0 0 35 36" fill="none" xmlns="http://www.w3.org/2000/svg">
<g clip-path="url(#clip0_33_1963)">
<path fill-rule="evenodd" clip-rule="evenodd" d="M10.2719 0.339776C7.4231 0.468314 4.95392 1.16481 2.96011 3.1502C0.959341 5.14602 0.271497 7.62498 0.14264 10.4441C0.0625387 12.2037 -0.40585 25.497 0.952378 28.9832C1.86831 31.3351 3.67227 33.1434 6.04569 34.0623C7.15316 34.4931 8.41739 34.7847 10.2719 34.8698C25.7783 35.5716 31.5264 35.1895 33.9503 28.9832C34.3804 27.8785 34.6764 26.6153 34.7583 24.7654C35.467 9.21924 34.6434 5.84951 31.9409 3.1502C29.7973 1.01195 27.2759 -0.443611 10.2719 0.339776ZM10.4146 31.7432C8.71687 31.6668 7.79572 31.3839 7.18104 31.1459C5.63475 30.5449 4.47329 29.3883 3.87602 27.851C2.84168 25.2021 3.18473 12.6209 3.27702 10.5851C3.36757 8.59105 3.77155 6.76859 5.17854 5.36163C6.91985 3.62461 9.16961 2.77332 24.488 3.46465C26.487 3.55497 28.3137 3.95813 29.7241 5.36163C31.4655 7.09862 32.3291 9.3657 31.6257 24.6253C31.549 26.3189 31.2652 27.2378 31.0267 27.851C29.4508 31.8895 25.8253 32.4502 10.4146 31.7432ZM24.6569 8.33184C24.6569 9.48175 25.592 10.4168 26.7465 10.4168C27.901 10.4168 28.8378 9.48175 28.8378 8.33184C28.8378 7.18195 27.901 6.24774 26.7465 6.24774C25.592 6.24774 24.6569 7.18195 24.6569 8.33184ZM8.50967 17.6039C8.50967 22.5301 12.513 26.524 17.4513 26.524C22.3897 26.524 26.393 22.5301 26.393 17.6039C26.393 12.6778 22.3897 8.68646 17.4513 8.68646C12.513 8.68646 8.50967 12.6778 8.50967 17.6039ZM11.6475 17.6039C11.6475 14.4079 14.2456 11.8148 17.4513 11.8148C20.6571 11.8148 23.2552 14.4079 23.2552 17.6039C23.2552 20.8018 20.6571 23.3957 17.4513 23.3957C14.2456 23.3957 11.6475 20.8018 11.6475 17.6039Z" fill="black"/>
</g>
<defs>
<clipPath id="clip0_33_1963">
<rect width="35" height="35" fill="white" transform="translate(0 0.125)"/>
</clipPath>
</defs>
</svg>
