<svg width="35" height="36" viewBox="0 0 35 36" fill="none" xmlns="http://www.w3.org/2000/svg">
<path d="M9.47949 11.792C10.6876 11.792 11.667 10.8126 11.667 9.60449C11.667 8.39637 10.6876 7.41699 9.47949 7.41699C8.27137 7.41699 7.29199 8.39637 7.29199 9.60449C7.29199 10.8126 8.27137 11.792 9.47949 11.792Z" fill="#0F0F0F"/>
<path d="M7.29199 14.7083C7.29199 13.9029 7.94492 13.25 8.75033 13.25H10.2087C11.0141 13.25 11.667 13.9029 11.667 14.7083V26.375C11.667 27.1804 11.0141 27.8333 10.2087 27.8333H8.75033C7.94492 27.8333 7.29199 27.1804 7.29199 26.375V14.7083Z" fill="#0F0F0F"/>
<path d="M16.0413 27.8333H17.4997C18.3051 27.8333 18.958 27.1804 18.958 26.375V19.8125C18.958 17.625 23.333 16.1667 23.333 19.0833V26.3756C23.333 27.181 23.9859 27.8333 24.7913 27.8333H26.2497C27.0551 27.8333 27.708 27.1804 27.708 26.375V17.625C27.708 14.7083 25.5205 13.25 22.6038 13.25C19.6872 13.25 18.958 15.4375 18.958 15.4375V14.7083C18.958 13.9029 18.3051 13.25 17.4997 13.25H16.0413C15.2359 13.25 14.583 13.9029 14.583 14.7083V26.375C14.583 27.1804 15.2359 27.8333 16.0413 27.8333Z" fill="#0F0F0F"/>
<path fill-rule="evenodd" clip-rule="evenodd" d="M29.1663 1.58301C31.5827 1.58301 33.5413 3.54177 33.5413 5.95801V29.2913C33.5413 31.7077 31.5827 33.6663 29.1663 33.6663H5.83301C3.41677 33.6663 1.45801 31.7077 1.45801 29.2913V5.95801C1.45801 3.54177 3.41677 1.58301 5.83301 1.58301H29.1663ZM29.1663 4.49967C29.9718 4.49967 30.6247 5.1526 30.6247 5.95801V29.2913C30.6247 30.0968 29.9718 30.7497 29.1663 30.7497H5.83301C5.0276 30.7497 4.37467 30.0968 4.37467 29.2913V5.95801C4.37467 5.1526 5.0276 4.49967 5.83301 4.49967H29.1663Z" fill="#0F0F0F"/>
</svg>
