<svg width="65" height="64" viewBox="0 0 65 64" fill="none" xmlns="http://www.w3.org/2000/svg">
<g id="linkedin">
<rect id="bg" x="4.62988" y="4" width="56" height="56" rx="28" fill="#1275B1"/>
<g id="linked_in">
<path d="M25.867 19.3843C25.867 21.2534 24.2469 22.7686 22.2484 22.7686C20.25 22.7686 18.6299 21.2534 18.6299 19.3843C18.6299 17.5152 20.25 16 22.2484 16C24.2469 16 25.867 17.5152 25.867 19.3843Z" fill="white"/>
<path d="M19.1247 25.2562H25.3103V44H19.1247V25.2562Z" fill="white"/>
<path d="M35.2691 25.2562H29.0835V44H35.2691C35.2691 44 35.2691 38.0992 35.2691 34.4097C35.2691 32.1952 36.0252 29.9711 39.0423 29.9711C42.4519 29.9711 42.4314 32.8691 42.4155 35.1142C42.3947 38.0489 42.4443 41.0437 42.4443 44H48.6299V34.1074C48.5775 27.7908 46.9315 24.8802 41.5165 24.8802C38.3007 24.8802 36.3073 26.3401 35.2691 27.661V25.2562Z" fill="white"/>
</g>
</g>
</svg>
