<svg width="144" height="36" viewBox="0 0 144 36" fill="none" xmlns="http://www.w3.org/2000/svg">
<g id="Layer 2">
<g id="Board1">
<g id="LogoSet2">
<g id="NonMainIcon">
<path id="Vector" opacity="0.1" d="M33.302 0H2.28644C1.02367 0 0 1.02367 0 2.28644V33.7136C0 34.9763 1.02367 36 2.28644 36H33.302C34.5648 36 35.5884 34.9763 35.5884 33.7136V2.28644C35.5884 1.02367 34.5648 0 33.302 0Z" fill="#EAC9FF"/>
<path id="Vector_2" d="M9.22559 9.2258L26.9912 9.16864L17.3767 18.2915H26.6025V26.7742H9.22559V9.2258Z" fill="url(#paint0_linear_1605_35554)"/>
<path id="Vector_3" d="M26.6025 18.2916L35.5882 9.22583V26.7743L26.6025 18.2916Z" fill="url(#paint1_linear_1605_35554)"/>
</g>
<g id="Gear">
<path id="Vector_4" d="M128.12 11.9009C127.341 10.9075 126.354 10.096 125.228 9.52301C123.908 8.86871 122.449 8.54319 120.975 8.57414C119.241 8.55448 117.535 9.0164 116.048 9.90849C114.56 10.8006 113.349 12.0879 112.55 13.6272C111.952 14.7517 111.564 15.976 111.407 17.2397C111.278 15.9046 110.89 14.6075 110.263 13.4214C109.434 11.9053 108.183 10.6623 106.662 9.84311C105.067 8.97897 103.275 8.54185 101.461 8.57414C99.5907 8.53818 97.7435 8.98719 96.0988 9.87741C94.5557 10.743 93.2969 12.0376 92.4748 13.6043C91.9704 14.6075 91.627 15.6839 91.4573 16.7939V15.262H77.0871V18.6916H86.8845C86.6594 20.7116 85.7137 22.5827 84.2208 23.9619C82.6554 25.2991 80.6415 25.9936 78.5847 25.9054C76.9867 25.9304 75.41 25.5362 74.0118 24.7621C72.6658 23.98 71.5711 22.8298 70.8565 21.4468C70.0736 19.9161 69.6808 18.2157 69.7133 16.4967C69.6823 14.7814 70.0749 13.0851 70.8565 11.5579C71.5759 10.1872 72.6702 9.04925 74.0118 8.2769C75.4084 7.49879 76.9862 7.10435 78.5847 7.13368C80.0303 7.10412 81.4594 7.44661 82.7346 8.12828C83.9432 8.80263 84.9196 9.82685 85.5355 11.0664H90.6571C89.7688 8.67775 88.1224 6.64591 85.9699 5.28167C83.8571 4.00881 81.449 3.30879 78.9831 3.25065C76.5172 3.19251 74.0787 3.77827 71.9083 4.95013C69.8984 6.058 68.23 7.69476 67.0839 9.68306C65.8843 11.7674 65.2719 14.1378 65.3119 16.5424C65.2719 18.9469 65.8843 21.3174 67.0839 23.4017C68.2297 25.3824 69.8884 27.0174 71.8854 28.1346C73.9331 29.2296 76.2289 29.777 78.5504 29.7237C80.7063 29.7509 82.8341 29.2317 84.7352 28.2147C86.3748 27.3395 87.8035 26.1166 88.9212 24.6317C90.0388 23.1467 90.8186 21.4354 91.2058 19.6176C91.2219 21.4157 91.6688 23.1838 92.5091 24.7736C93.349 26.3631 94.6211 27.6829 96.1788 28.5805C97.7926 29.478 99.6141 29.9354 101.461 29.9066C103.632 29.983 105.769 29.3444 107.542 28.0889C109.151 26.9419 110.352 25.3121 110.972 23.436H106.319C105.894 24.3481 105.201 25.1096 104.334 25.6199C103.466 26.1302 102.464 26.3653 101.461 26.294C99.973 26.3314 98.528 25.7951 97.4249 24.7964C96.3141 23.7684 95.6563 22.3418 95.5958 20.8295H111.338C111.332 20.7916 111.332 20.753 111.338 20.7151C111.463 22.1054 111.851 23.4593 112.481 24.705C113.275 26.2712 114.486 27.5884 115.979 28.5119C117.435 29.4235 119.121 29.8996 120.838 29.8838C122.317 29.9063 123.779 29.573 125.102 28.912C126.258 28.3355 127.267 27.5026 128.052 26.477V29.5408H132.35V8.96283H128.052L128.12 11.9009ZM95.6301 17.3655C95.7585 15.9104 96.4275 14.5563 97.505 13.57C98.5365 12.6362 99.8865 12.133 101.278 12.1638C102.767 12.1145 104.221 12.6196 105.359 13.5814C105.897 14.0525 106.326 14.6349 106.616 15.2884C106.906 15.9418 107.051 16.6506 107.039 17.3655H95.6301ZM127.24 22.8644C126.717 23.8651 125.925 24.7004 124.954 25.2766C124.027 25.8225 122.971 26.1104 121.896 26.1104C120.82 26.1104 119.764 25.8225 118.837 25.2766C117.863 24.6892 117.071 23.8421 116.551 22.8301C115.941 21.6804 115.638 20.3928 115.671 19.0918C115.635 17.8086 115.938 16.5386 116.551 15.4106C117.073 14.4466 117.848 13.6434 118.793 13.0874C119.738 12.5313 120.817 12.2437 121.913 12.2553C122.989 12.2505 124.047 12.5347 124.977 13.0784C125.944 13.6489 126.736 14.4758 127.263 15.4678C127.871 16.606 128.174 17.8819 128.143 19.1718C128.161 20.4594 127.85 21.7304 127.24 22.8644Z" fill="url(#paint2_linear_1605_35554)"/>
<path id="Vector_5" d="M140.033 9.45443C139.001 10.0366 138.142 10.8804 137.541 11.9009V8.90568H133.276V29.4836H137.541V18.6688C137.541 16.5767 137.975 15.1019 138.832 14.256C139.35 13.8038 139.951 13.4588 140.603 13.2409C141.254 13.0231 141.943 12.9368 142.628 12.987H143.714V8.57415C142.431 8.54069 141.162 8.84421 140.033 9.45443Z" fill="url(#paint3_linear_1605_35554)"/>
</g>
<g id="7th">
<g id="7">
<path id="Vector_6" d="M60.8533 4.06989H44.3452V9.80885H59.7672L60.8533 7.9797V4.06989Z" fill="white"/>
<path id="Vector_7" d="M54.4516 29.8495L60.8537 18.1658V9.80884H59.7676L48.5869 29.8495H54.4516Z" fill="white"/>
</g>
<path id="Vector_8" d="M63.0941 7.71679C62.9959 7.72418 62.8973 7.71068 62.8047 7.67718C62.712 7.64368 62.6276 7.59095 62.5568 7.52245C62.4796 7.43182 62.4223 7.32592 62.3889 7.21166C62.3554 7.0974 62.3464 6.97736 62.3625 6.85938V5.52181H62.0767V5.17885H62.3625V4.45862H62.7855V5.17885H63.5514V5.52181H62.7855V7.008C62.7754 7.07239 62.7754 7.13795 62.7855 7.20235C62.8158 7.25147 62.8594 7.29108 62.9112 7.31667C62.9866 7.33239 63.0645 7.33239 63.1399 7.31667H63.3342H63.4714V7.69393H63.2313L63.0941 7.71679Z" fill="white"/>
<path id="Vector_9" d="M65.7921 7.67105H65.3691V6.25346C65.375 6.14684 65.375 6.03998 65.3691 5.93336C65.3566 5.85649 65.3295 5.78274 65.2891 5.71615C65.2621 5.65257 65.2187 5.59733 65.1633 5.5561C65.0807 5.53575 64.9944 5.53575 64.9118 5.5561C64.8001 5.55537 64.69 5.5829 64.5917 5.63612C64.4737 5.6963 64.3625 5.76914 64.2602 5.85333V7.67105H63.8486V4.24139H64.2602V5.49894C64.3719 5.39571 64.4992 5.31082 64.6375 5.24743C64.7583 5.18757 64.8913 5.15628 65.0262 5.15597C65.1333 5.1509 65.2402 5.16982 65.3391 5.21135C65.438 5.25289 65.5264 5.31599 65.5978 5.39605C65.7479 5.60061 65.8208 5.85169 65.8035 6.10484L65.7921 7.67105Z" fill="white"/>
</g>
</g>
</g>
</g>
<defs>
<linearGradient id="paint0_linear_1605_35554" x1="9.22559" y1="17.9714" x2="26.9912" y2="17.9714" gradientUnits="userSpaceOnUse">
<stop stop-color="#BD00CD"/>
<stop offset="1" stop-color="#2D396C"/>
</linearGradient>
<linearGradient id="paint1_linear_1605_35554" x1="26.6025" y1="18.0058" x2="35.5882" y2="18.0058" gradientUnits="userSpaceOnUse">
<stop stop-color="#BA01CB"/>
<stop offset="1" stop-color="#31376F"/>
</linearGradient>
<linearGradient id="paint2_linear_1605_35554" x1="75.418" y1="16.5195" x2="149.887" y2="16.5195" gradientUnits="userSpaceOnUse">
<stop offset="0.33" stop-color="#B902CA"/>
<stop offset="1" stop-color="#32376F"/>
</linearGradient>
<linearGradient id="paint3_linear_1605_35554" x1="124.302" y1="19.046" x2="149.544" y2="19.046" gradientUnits="userSpaceOnUse">
<stop stop-color="#B902CA"/>
<stop offset="1" stop-color="#32376F"/>
</linearGradient>
</defs>
</svg>
