<svg xmlns="http://www.w3.org/2000/svg" xmlns:xlink="http://www.w3.org/1999/xlink" viewBox="0 0 124.8 31.49"><defs><style>.cls-1{fill:url(#linear-gradient);}.cls-2{fill:url(#linear-gradient-2);}.cls-3{fill:url(#linear-gradient-3);}.cls-4{fill:url(#linear-gradient-4);}.cls-5{fill:url(#linear-gradient-5);}.cls-6{fill:url(#linear-gradient-6);}.cls-7{fill:url(#linear-gradient-7);}</style><linearGradient id="linear-gradient" x1="26.56" y1="8.67" x2="19.97" y2="15.27" gradientUnits="userSpaceOnUse"><stop offset="0" stop-color="#2d396c"/><stop offset="1" stop-color="#bd00cd"/></linearGradient><linearGradient id="linear-gradient-2" x1="7.62" y1="27.45" x2="31.13" y2="27.45" xlink:href="#linear-gradient"/><linearGradient id="linear-gradient-3" y1="4.04" x2="31.13" y2="4.04" gradientUnits="userSpaceOnUse"><stop offset="0" stop-color="#bd00cd"/><stop offset="1" stop-color="#2d396c"/></linearGradient><linearGradient id="linear-gradient-4" x1="4.04" y1="8.83" x2="4.04" y2="30.7" gradientTransform="translate(-15.75 23.82) rotate(-90)" xlink:href="#linear-gradient-3"/><linearGradient id="linear-gradient-5" x1="22.51" y1="19.01" x2="29.84" y2="25.73" gradientUnits="userSpaceOnUse"><stop offset="0" stop-color="#2d396c"/><stop offset="0.73" stop-color="#bd00cd"/></linearGradient><linearGradient id="linear-gradient-6" x1="65.07" y1="16.56" x2="130.21" y2="16.56" gradientUnits="userSpaceOnUse"><stop offset="0.33" stop-color="#b902ca"/><stop offset="1" stop-color="#32376f"/></linearGradient><linearGradient id="linear-gradient-7" x1="107.83" y1="18.77" x2="129.91" y2="18.77" gradientUnits="userSpaceOnUse"><stop offset="0" stop-color="#b902ca"/><stop offset="1" stop-color="#32376f"/></linearGradient></defs><g id="Layer_2" data-name="Layer 2"><g id="Board1"><g id="LogoSet1"><g id="MainIcon"><path class="cls-1" d="M31.13,8.07,23.27,16H15.2l8.41-8Z"/><path class="cls-2" d="M7.62,23.42H31.13a0,0,0,0,1,0,0v6.07a2,2,0,0,1-2,2H7.62a0,0,0,0,1,0,0V23.42A0,0,0,0,1,7.62,23.42Z"/><path class="cls-3" d="M2,0H29.13a2,2,0,0,1,2,2V8.07a0,0,0,0,1,0,0H0a0,0,0,0,1,0,0V2A2,2,0,0,1,2,0Z"/><path class="cls-4" d="M-7.67,15.75H15.75a0,0,0,0,1,0,0v6.07a2,2,0,0,1-2,2H-7.67a0,0,0,0,1,0,0V15.75A0,0,0,0,1-7.67,15.75Z" transform="translate(23.82 15.75) rotate(90)"/><path class="cls-5" d="M31.13,23.42,23.27,16v7.42Z"/></g><g id="GearTypo"><path class="cls-6" d="M111.17,12.52a7.54,7.54,0,0,0-2.54-2.08,7.9,7.9,0,0,0-3.71-.83A8.2,8.2,0,0,0,97.55,14a9.15,9.15,0,0,0-1,3.16,9,9,0,0,0-1-3.34,7.93,7.93,0,0,0-3.11-3.13,9.21,9.21,0,0,0-4.55-1.11,9.37,9.37,0,0,0-4.69,1.15A7.88,7.88,0,0,0,80,14a9.36,9.36,0,0,0-.93,2.79V15.46H66.53v3h8.54a7.39,7.39,0,0,1-2.33,4.61,7.12,7.12,0,0,1-4.93,1.7,8,8,0,0,1-4-1A7.09,7.09,0,0,1,61,20.84a9,9,0,0,1-1-4.33,9,9,0,0,1,1-4.32,7.07,7.07,0,0,1,2.76-2.87,7.92,7.92,0,0,1,4-1,7.38,7.38,0,0,1,3.63.87,6,6,0,0,1,2.45,2.57h4.48a10.16,10.16,0,0,0-4.11-5.06A12.39,12.39,0,0,0,62,6.39a11,11,0,0,0-4.22,4.14,11.54,11.54,0,0,0-1.55,6,11.6,11.6,0,0,0,1.55,6A11.1,11.1,0,0,0,62,26.63a11.79,11.79,0,0,0,5.86,1.49,11.21,11.21,0,0,0,11.07-8.84A9.84,9.84,0,0,0,80,23.79a8.28,8.28,0,0,0,3.21,3.27,9.21,9.21,0,0,0,4.62,1.16,8.68,8.68,0,0,0,5.32-1.59,8.15,8.15,0,0,0,3-4.07h-4a4.35,4.35,0,0,1-4.25,2.52,5.07,5.07,0,0,1-3.53-1.31,5,5,0,0,1-1.6-3.46H96.49a.37.37,0,0,1,0-.11,9.65,9.65,0,0,0,1,3.49A8.36,8.36,0,0,0,100.61,27a7.87,7.87,0,0,0,4.25,1.2,8.07,8.07,0,0,0,3.73-.85,7.51,7.51,0,0,0,2.58-2.13v2.68h3.76V9.9h-3.76ZM82.75,17.3A5.06,5.06,0,0,1,84.39,14a4.76,4.76,0,0,1,3.3-1.23A5.24,5.24,0,0,1,91.25,14a4.28,4.28,0,0,1,1.48,3.31Zm27.65,4.85a5.32,5.32,0,0,1-2,2.11,5.3,5.3,0,0,1-5.35,0,5.55,5.55,0,0,1-2-2.15,6.69,6.69,0,0,1-.76-3.27,6.47,6.47,0,0,1,.76-3.22,5.41,5.41,0,0,1,2-2.06,5.31,5.31,0,0,1,2.68-.7,5.26,5.26,0,0,1,2.68.72,5.4,5.4,0,0,1,2,2.09,6.58,6.58,0,0,1,.77,3.24A6.62,6.62,0,0,1,110.4,22.15Z"/><path class="cls-7" d="M121.58,10.38a5.86,5.86,0,0,0-2.17,2.14V9.9h-3.73v18h3.73V18.44c0-1.83.38-3.12,1.13-3.86a4.54,4.54,0,0,1,3.32-1.11h.94V9.61A6.47,6.47,0,0,0,121.58,10.38Z"/></g><g id="_7th" data-name="7th"><g id="_7" data-name="7"><polygon points="52.33 5.67 37.89 5.67 37.89 10.69 51.38 10.69 52.33 9.09 52.33 5.67"/><polygon points="46.73 28.22 52.33 18 52.33 10.69 51.38 10.69 41.6 28.22 46.73 28.22"/></g><path d="M54.28,8.87a.59.59,0,0,1-.46-.18.7.7,0,0,1-.17-.54V7H53.4V6.64h.25V6H54v.63h.67V7H54V8.24a.37.37,0,0,0,0,.17.19.19,0,0,0,.1.1.56.56,0,0,0,.2,0l.18,0,.12,0h0V8.8l-.21,0Z"/><path d="M56.65,8.82h-.37V7.58a2.53,2.53,0,0,0,0-.28.53.53,0,0,0-.06-.21A.34.34,0,0,0,56.09,7a.48.48,0,0,0-.22,0,.58.58,0,0,0-.28.07,1.81,1.81,0,0,0-.29.19V8.82h-.37v-3h.37v1.1a1.58,1.58,0,0,1,.33-.22A.76.76,0,0,1,56,6.58a.64.64,0,0,1,.51.21.94.94,0,0,1,.18.62Z"/></g></g></g></g></svg>