<svg width="45" height="36" viewBox="0 0 45 36" fill="none" xmlns="http://www.w3.org/2000/svg">
<g id="meet">
<path id="Vector" d="M0.147949 33.1199C0.147949 34.7111 1.44791 35.9999 3.04957 35.9999H3.09128C1.46509 35.9999 0.147949 34.7111 0.147949 33.1199Z" fill="#FBBC05"/>
<path id="Vector_2" d="M25.083 10.7999V18.3191L35.2203 10.1423V2.87998C35.2203 1.28879 33.9203 0 32.3186 0H10.3565L10.3369 10.7999H25.083Z" fill="#FBBC05"/>
<path id="Vector_3" d="M25.0827 25.8414H10.3121L10.2949 36.0006H32.3183C33.9225 36.0006 35.22 34.7118 35.22 33.1206V26.5638L25.0827 18.3223V25.8414Z" fill="#34A853"/>
<path id="Vector_4" d="M10.3564 0L0.147949 10.7999H10.3392L10.3564 0Z" fill="#EA4335"/>
<path id="Vector_5" d="M0.147949 25.8408V33.12C0.147949 34.7112 1.46509 36 3.09128 36H10.2951L10.3122 25.8408H0.147949Z" fill="#1967D2"/>
<path id="Vector_6" d="M10.3392 10.7998H0.147949V25.8405H10.3122L10.3392 10.7998Z" fill="#4285F4"/>
<path id="Vector_7" d="M44.1336 30.5598V5.83988C43.5621 2.5591 39.9639 6.31988 39.9639 6.31988L35.2227 10.1431V26.5614L42.0095 32.079C44.4598 32.4006 44.1336 30.5598 44.1336 30.5598Z" fill="#34A853"/>
<path id="Vector_8" d="M25.083 18.3191L35.2228 26.5631V10.1448L25.083 18.3191Z" fill="#188038"/>
</g>
</svg>
