<svg width="65" height="40" viewBox="0 0 65 40" fill="none" xmlns="http://www.w3.org/2000/svg">
<g id="monday-1" clip-path="url(#clip0_1717_3378)">
<path id="Vector" d="M32.6171 39.3556C29.818 39.2872 27.5087 38.0522 26.0341 35.4743C24.5227 32.8095 24.5885 30.0815 26.2 27.4825C30.0366 21.2971 33.9232 15.146 37.7861 8.97899C38.5761 7.71768 39.3476 6.43795 40.1744 5.20034C41.2721 3.50761 42.9871 2.31022 44.9544 1.86315C46.9217 1.41608 48.9858 1.75465 50.7072 2.80676C54.3437 5.04762 55.5602 9.70839 53.2957 13.3817C48.6665 20.9214 43.9715 28.4243 39.2107 35.8903C37.744 38.1996 35.5189 39.3135 32.6171 39.3556Z" fill="#FFCB00"/>
<path id="Vector_2" d="M8.57599 39.3556C5.75056 39.2871 3.45441 37.9968 2.00878 35.4295C0.518388 32.7647 0.613184 30.0314 2.22997 27.4324C6.35708 20.8108 10.5026 14.1988 14.6666 7.59651C15.1932 6.74335 15.7199 5.86913 16.2834 5.0423C17.426 3.38632 19.1683 2.24004 21.1414 1.84616C23.1144 1.45229 25.1633 1.84174 26.8542 2.93205C28.5451 4.02237 29.7453 5.72796 30.2007 7.6877C30.6561 9.64745 30.3309 11.7075 29.294 13.4317C24.6807 20.881 20.0041 28.304 15.3249 35.7191C13.8055 38.1232 11.5699 39.3134 8.57599 39.3556Z" fill="#FF3D57"/>
<path id="Vector_3" d="M56.8136 24.257C61.0715 24.2781 64.5183 27.6617 64.5104 31.8117C64.5104 36.0248 60.9714 39.4216 56.674 39.3689C52.3766 39.3163 48.9903 35.9695 48.9956 31.8011C49.0009 27.5722 52.4609 24.2307 56.8136 24.257Z" fill="#00D647"/>
</g>
<defs>
<clipPath id="clip0_1717_3378">
<rect width="64" height="39.6544" fill="white" transform="translate(0.518555 0.172852)"/>
</clipPath>
</defs>
</svg>
