<svg width="65" height="64" viewBox="0 0 65 64" fill="none" xmlns="http://www.w3.org/2000/svg">
<g id="notion">
<path id="bg" fill-rule="evenodd" clip-rule="evenodd" d="M11.5433 58.4356L4.6646 49.8663C3.00959 47.8045 2.11133 45.2692 2.11133 42.6597V11.63C2.11133 7.72128 5.2385 4.47794 9.27275 4.2025L41.1756 2.02437C43.4933 1.86612 45.797 2.48218 47.7008 3.76941L58.9098 11.3478C60.9162 12.7044 62.1113 14.922 62.1113 17.2885V52.5663C62.1113 56.3915 59.0364 59.5586 55.0866 59.8017L19.678 61.9813C16.526 62.1754 13.4793 60.8474 11.5433 58.4356Z" fill="white"/>
<g id="vector">
<path d="M22.6075 27.1574V26.7512C22.6075 25.7214 23.4323 24.8673 24.4952 24.7964L32.2379 24.2794L42.9454 40.047V26.2083L40.1893 25.8409V25.6479C40.1893 24.6061 41.033 23.7464 42.1095 23.6912L49.1545 23.3303V24.3442C49.1545 24.8201 48.8006 25.2272 48.3155 25.3092L46.6202 25.596V48.0074L44.4925 48.7391C42.715 49.3504 40.7361 48.696 39.7185 47.1605L29.3235 31.4744V46.4459L32.523 47.0583L32.4785 47.355C32.3388 48.2847 31.5362 48.9877 30.5653 49.0309L22.6075 49.3851C22.5023 48.3855 23.2515 47.4911 24.2851 47.3825L25.3319 47.2726V27.3105L22.6075 27.1574Z" fill="black"/>
<path fill-rule="evenodd" clip-rule="evenodd" d="M41.4611 5.93356L9.55827 8.1117C7.64731 8.24217 6.16602 9.77849 6.16602 11.63V42.6598C6.16602 44.3994 6.76486 46.0896 7.8682 47.4641L14.7469 56.0334C15.8591 57.4189 17.6093 58.1818 19.42 58.0703L54.8286 55.8907C56.6434 55.779 58.0562 54.3239 58.0562 52.5663V17.2885C58.0562 16.2012 57.5071 15.1823 56.5852 14.559L45.3762 6.98059C44.2339 6.20825 42.8517 5.83862 41.4611 5.93356ZM11.1403 12.114C10.6966 11.7855 10.9077 11.1011 11.4651 11.0611L41.6757 8.89422C42.6383 8.82518 43.5947 9.09024 44.3732 9.64176L50.4347 13.9363C50.6648 14.0993 50.5569 14.4513 50.272 14.4668L18.2791 16.2067C17.3109 16.2594 16.3552 15.9749 15.5854 15.405L11.1403 12.114ZM16.7785 21.6614C16.7785 20.6221 17.6181 19.7635 18.6919 19.7051L52.5174 17.8629C53.5639 17.8059 54.4448 18.6107 54.4448 19.6236V50.1705C54.4448 51.208 53.6081 52.0656 52.5365 52.1266L18.9251 54.0391C17.7605 54.1053 16.7785 53.2104 16.7785 52.083V21.6614Z" fill="black"/>
</g>
</g>
</svg>
