<svg width="242" height="20" viewBox="0 0 242 20" fill="none" xmlns="http://www.w3.org/2000/svg">
<g id="Hand-drawn pen scribble">
<path id="Vector" d="M241.863 8.42792C241.744 8.06248 241.506 7.81886 241.149 7.69704C239.483 7.08799 237.698 7.08799 236.032 6.84437C235.08 6.72256 234.247 6.72255 233.295 6.47893C232.7 6.35712 231.986 6.23531 231.272 6.23531C230.676 6.23531 230.081 5.99169 229.486 5.99169C229.367 5.99169 229.129 5.86988 229.01 5.99169C228.177 6.23532 227.463 5.99169 226.749 5.86988C226.035 5.74806 225.44 5.74807 224.845 5.62626C224.131 5.99169 223.536 5.38263 222.941 5.50444C222.227 5.62625 221.394 5.26083 220.68 5.38264C219.847 5.50445 219.014 5.0172 218.181 5.38264C218.062 5.38264 217.705 5.26082 217.467 5.26082C216.991 5.26082 216.396 5.13901 215.92 5.0172C215.206 4.89539 214.373 4.65176 213.659 4.89538C212.826 5.13901 212.112 4.77358 211.398 4.65176L210.208 4.77358C210.089 4.77358 209.851 4.89539 209.732 4.77358C208.78 4.40815 207.947 4.65176 206.995 4.65176C206.638 4.52995 206.162 4.65177 205.805 4.52996C204.02 3.9209 202.235 4.28633 200.45 4.28633C199.498 4.28633 198.546 4.16452 197.594 4.16452C196.047 4.16452 194.5 3.92089 192.953 3.92089C191.644 3.92089 190.335 3.92089 188.907 3.67727C188.074 3.55546 187.241 3.55547 186.408 3.55547C186.17 3.55547 185.932 3.67728 185.694 3.55547C184.504 3.43366 183.314 3.55546 182.005 3.43365C179.744 3.19003 177.364 3.67727 175.103 3.06821C174.865 3.06821 174.627 3.19003 174.389 3.19003C173.437 3.19003 172.604 3.31183 171.652 3.31183C171.176 3.31183 170.581 2.9464 169.986 3.31183C169.391 2.9464 168.796 3.06821 168.082 3.31183C167.725 3.43364 167.368 3.43364 167.011 3.31183C166.059 2.9464 165.226 2.94641 164.274 3.19003C163.798 3.31184 163.203 2.9464 162.608 3.31183C161.775 2.9464 160.704 3.31184 159.752 3.19003C158.8 3.06822 157.848 2.9464 156.896 3.31183C156.063 2.9464 154.992 3.06821 154.04 3.06821C153.683 3.19003 153.326 3.19003 152.969 3.19003C152.731 3.19003 152.374 3.43364 152.136 3.31183C151.66 3.06821 151.065 3.19003 150.47 3.19003C149.994 3.19003 149.399 3.06821 148.804 3.06821C147.852 3.06821 147.019 3.19003 146.067 3.06821C145.234 2.9464 144.401 3.31184 143.568 3.06821C142.735 2.82459 141.783 3.31183 140.95 3.31183C138.094 3.31183 135.357 3.31184 132.62 3.43365C131.906 3.06822 131.192 3.43365 130.478 3.43365C129.764 3.43365 129.05 3.19003 128.336 3.43365C127.979 3.55546 127.503 3.55547 127.027 3.55547C125.48 3.55547 123.814 3.67728 122.267 3.55547C121.434 3.9209 120.482 3.79909 119.53 3.79909C117.626 3.79909 115.603 3.67727 113.58 3.92089C112.39 4.0427 111.319 4.16452 110.129 4.16452H107.392C106.44 4.16452 105.488 4.0427 104.536 4.28633C103.584 4.52995 102.751 4.16452 101.918 4.28633C100.847 4.40814 99.7756 4.28634 98.8236 4.52996C97.8716 4.77358 96.8006 4.28633 95.8486 4.89538H95.4916C94.3015 4.40814 93.1115 4.65176 92.0405 4.65176C90.8505 4.65176 89.6605 4.65177 88.5895 5.0172C88.2325 5.13901 87.9945 5.13901 87.6375 5.0172C87.3995 4.89539 87.0425 4.89539 86.6855 5.0172C85.7335 5.0172 84.7815 4.77357 83.8295 5.26082C82.8775 5.0172 81.9255 5.13901 80.9734 5.26082C80.0214 5.38263 79.1884 5.38264 78.2364 5.38264C77.2844 5.38264 76.3324 5.38263 75.3804 5.62626C74.4284 5.38263 73.5954 5.99168 72.7624 5.50444C71.8104 5.86987 70.9774 5.50445 70.0254 5.74807C68.8354 5.9917 67.6454 6.1135 66.4553 5.99169C65.6223 5.86988 64.9083 6.1135 64.1943 6.23531C63.4803 6.35712 62.8853 6.35713 62.2903 6.35713C61.5763 6.35713 60.8623 6.11351 60.1483 6.35713C58.8393 6.84437 57.4113 6.35712 55.9833 6.84437C54.6743 6.47893 53.3653 7.08799 52.0563 7.08799C51.4613 7.08799 50.7472 6.96618 50.1522 7.20981C49.3192 7.57524 48.3672 7.45342 47.4152 7.45342C46.9392 7.33161 46.3442 7.33162 45.7492 7.57524C45.1542 7.81886 44.4402 8.06248 43.7262 7.81886C43.3692 7.69705 43.0122 7.81887 42.5362 7.94068C41.8222 7.94068 41.1082 8.06248 40.2752 8.06248C39.5612 8.06248 38.8472 8.67153 38.0142 8.3061C37.7762 8.18429 37.5382 8.42791 37.5382 8.67154C37.4191 9.03697 37.3001 9.40241 36.9431 8.79335C36.8241 8.54973 36.4671 8.54973 36.1101 8.54973C35.6341 8.54973 35.2771 8.79335 34.8011 8.67154C34.4441 8.54973 33.9681 9.03698 33.4921 8.79335C33.2541 8.67154 33.2541 9.03698 33.1351 9.15879C33.1351 9.52423 33.0161 9.64603 32.6591 9.40241C31.7071 9.03698 30.8741 8.91517 30.0411 9.76785C29.8031 10.0115 29.8031 9.88965 29.6841 9.64603C29.6841 9.40241 29.8031 9.15879 29.3271 9.15879C28.3751 9.40241 27.4231 9.76785 26.4711 9.76785C25.4001 9.76785 24.4481 10.0115 23.4961 10.1333C21.473 10.3769 19.45 10.3769 17.308 10.8641C16.118 11.1078 14.809 11.2296 13.619 11.595C13.262 11.7168 12.905 11.7168 12.667 11.7168C12.191 11.7168 11.596 12.0823 11.12 11.9605C10.525 11.8386 10.049 12.0823 9.45395 12.3259C9.09695 12.4477 8.73995 12.4477 8.38295 12.5695C6.95494 12.5695 5.64593 12.9349 4.45592 13.544C4.21792 13.6658 3.86092 13.6658 3.50391 13.7876C3.14691 14.0312 2.90891 14.0312 2.43291 13.9094C1.5999 13.6658 0.766894 13.6658 0.0528894 14.2749C0.0528894 14.3967 -0.0661117 14.5185 0.0528894 14.6403C0.0528894 14.7621 0.17189 14.7621 0.290891 14.8839C0.528893 14.8839 0.647893 14.8839 0.885895 14.7621C1.1239 14.6403 1.3619 14.5185 1.5999 14.6403C2.78991 15.2494 3.97992 15.0057 5.16993 14.7621C5.76493 14.6403 6.24093 14.8839 6.71694 14.3967C7.07394 14.0312 7.54994 14.0312 7.90694 14.0312C8.50195 14.0312 8.97795 13.9094 9.45395 13.9094C10.406 13.9094 11.12 13.544 11.834 12.8131C12.072 12.4477 12.548 12.4477 12.905 12.6913C13.619 13.4222 14.333 13.3004 15.285 13.3004C15.999 13.3004 16.713 13.0567 17.546 13.0567C17.784 13.0567 18.022 13.1786 18.26 12.9349C18.855 12.3259 19.926 12.5695 20.64 12.2041C20.878 12.0823 21.116 12.2041 21.354 12.2041C21.711 12.3259 22.068 12.3259 22.306 12.3259C24.0911 12.3259 25.8761 11.9604 27.6611 11.7168L28.0181 11.4732C28.2561 10.986 28.4941 11.2296 28.9701 11.2296C29.4461 11.2296 30.1601 11.3514 30.6361 11.2296C31.5881 10.986 32.5401 10.6205 33.6111 10.8641C34.4441 10.3769 35.2771 10.6205 36.1101 10.4987H39.4422C39.7992 10.4987 40.2752 10.6205 40.6322 10.1333C40.6322 9.88965 40.7512 9.88966 40.8702 10.0115C41.2272 10.7423 41.9412 10.4987 42.4172 10.3769C43.3692 10.1333 44.2022 10.0115 45.1542 9.52421C45.3922 9.4024 45.5112 9.64604 45.6302 9.76785C45.8682 10.0115 45.9872 10.0115 46.1062 10.0115C47.0582 9.64603 48.0102 9.76784 48.9622 9.64603C50.0332 9.52422 50.9852 9.64603 52.0563 9.64603C52.5323 9.64603 53.0083 9.76784 53.3653 9.64603C54.5553 9.2806 55.6263 9.28059 56.8163 9.28059C57.7683 9.28059 58.4823 9.4024 59.4343 8.91516C59.6723 8.79335 60.0293 8.91516 60.2673 8.91516C62.4093 8.91516 64.5513 9.03698 66.5743 8.54973H67.1693C68.0024 8.54973 68.7164 8.54973 69.5494 8.42792C70.3824 8.30611 71.0964 8.54973 71.9294 8.54973C72.4054 8.42792 72.8814 8.54972 73.2384 8.3061C73.8334 7.94067 74.3094 8.54972 74.7854 8.3061C75.6184 7.81886 76.3324 8.06248 77.1654 8.06248C78.2364 8.06248 79.3074 8.18429 80.2594 8.06248C81.6875 7.81886 83.1155 7.69704 84.4245 7.69704C84.7815 7.69704 85.1385 7.81886 85.3765 7.69704C85.9715 7.45342 86.4475 7.45343 86.9235 7.57524C87.3995 7.69705 87.8755 7.33162 88.4705 7.57524C88.9465 7.81886 89.5415 7.45343 90.1365 7.57524C90.6125 7.69705 91.0885 7.81886 91.6835 7.57524C92.1595 7.33162 92.7545 7.57524 93.3495 7.45342C93.9445 7.33161 94.5395 7.20981 95.2536 7.20981C95.9676 7.20981 96.5626 7.33162 97.2766 7.33162C97.9906 7.33162 98.5856 7.08799 99.1806 7.20981C99.8946 7.33162 100.609 7.33162 101.323 7.33162C102.394 7.33162 103.584 7.57523 104.536 7.08799C104.774 6.96618 105.012 7.08799 105.25 7.08799C106.321 7.33161 107.273 7.45342 108.344 7.08799C109.177 6.84437 110.01 6.47894 110.843 6.96619C112.866 6.96619 115.008 6.84437 117.15 6.84437C117.864 6.60075 118.697 6.72255 119.411 6.72255C119.887 6.72255 120.244 6.96618 120.72 6.60075C121.91 6.84437 122.981 6.47893 124.171 6.47893C125.718 6.47893 127.384 6.72256 129.05 6.35713H129.407C130.24 6.72256 130.954 6.47894 131.787 6.35713C132.025 6.23532 132.144 6.35713 132.382 6.35713C133.691 6.72256 135 6.84437 136.428 6.35713C136.785 6.23532 137.142 6.23532 137.499 6.35713C138.094 6.60075 138.689 6.60075 139.284 6.35713C139.76 6.11351 140.236 6.11351 140.712 6.35713C140.95 6.47894 141.307 6.47893 141.545 6.47893H145.472C145.948 6.60074 146.543 6.60074 147.019 6.47893C148.209 6.23531 149.28 6.47893 150.47 6.47893C150.946 6.47893 151.541 6.60075 152.136 6.23531C152.731 5.86988 153.207 5.74807 153.802 6.35713C154.04 6.47894 154.397 6.47893 154.754 6.47893C155.825 6.47893 156.896 6.60075 157.967 6.35713C158.919 6.72256 159.99 6.47893 160.942 6.47893C161.894 6.47893 162.846 6.60074 163.798 6.47893C164.75 6.35712 165.702 6.47893 166.654 6.47893C168.677 6.47893 170.7 6.35712 172.604 6.72255C172.723 6.84436 172.961 6.84436 173.08 6.72255C173.794 6.47893 174.508 6.72256 175.341 6.84437C176.769 7.08799 178.316 6.96618 179.863 6.47893C180.22 6.35712 180.577 6.35712 180.934 6.47893C182.005 6.84437 183.076 6.96619 184.147 6.96619C185.337 6.96619 186.408 7.08799 187.479 7.08799C188.193 7.08799 188.907 7.20981 189.502 7.20981C190.335 7.20981 191.049 7.33161 191.882 7.08799C192.596 6.84437 193.31 7.33162 194.143 7.33162H194.857C196.047 7.088 196.999 7.45342 198.07 7.45342C198.189 7.45342 198.189 7.57524 198.308 7.57524V7.69704C198.427 7.94067 198.308 8.06248 198.189 8.06248C197.951 8.06248 197.713 8.18429 197.594 8.06248C197.118 7.57524 196.285 7.81886 195.571 8.06248C195.214 8.18429 194.857 8.1843 194.5 8.1843H189.621C189.145 8.1843 188.669 8.30611 188.312 8.42792C187.717 8.67154 187.36 7.94068 186.765 8.1843C186.408 8.30611 186.051 8.18429 185.694 8.3061C185.337 8.42791 185.099 8.42792 184.742 8.42792C184.266 8.42792 183.909 8.54972 183.433 8.3061C182.957 8.06248 182.481 8.54972 182.005 8.3061H177.959C177.483 8.3061 177.126 8.54973 176.769 8.42792C175.817 8.06248 174.865 8.79335 174.032 8.3061C172.961 8.67153 172.009 8.54973 170.938 8.54973H168.082C167.13 8.54973 166.178 8.67154 165.226 8.67154C164.155 8.67154 163.203 9.03697 162.132 8.67154C162.013 8.54973 161.775 8.67154 161.537 8.79335C161.061 8.79335 160.466 8.91516 159.871 8.91516C157.729 8.91516 155.468 8.91517 153.326 9.15879C152.017 9.2806 150.589 9.28059 149.28 9.28059C148.209 9.28059 147.019 9.52421 145.948 10.1333C145.829 10.2551 145.591 10.2551 145.472 10.3769C145.234 9.64604 144.639 10.1333 144.282 10.0115C143.449 9.76784 142.616 9.76784 141.664 10.0115C141.426 10.0115 141.188 10.1333 140.95 10.0115C140.474 9.76784 139.998 10.0115 139.641 10.0115C138.689 10.0115 137.737 10.2551 136.785 10.1333C136.071 10.0115 135.357 10.2551 134.762 10.6205C134.405 10.7423 134.167 10.7423 133.81 10.6205C133.453 10.6205 133.096 10.7423 132.62 10.7423C132.382 10.7423 132.025 10.8641 131.668 10.8641C130.954 10.6205 130.24 10.986 129.526 11.1078C129.05 11.2296 128.693 11.3514 128.336 11.2296C127.979 11.1078 127.741 11.3514 127.86 11.7168C127.979 13.0567 128.931 13.6658 130.002 12.9349C130.359 12.6913 130.597 12.6913 130.835 12.8131C131.549 12.9349 132.025 13.3004 132.739 12.9349C132.977 12.8131 133.334 12.8131 133.691 12.8131C134.524 12.8131 135.238 12.8131 135.952 12.6913C136.785 12.5695 137.499 12.4477 138.332 12.4477H140.593C140.95 12.4477 141.426 12.4477 141.902 12.3259C142.616 12.0823 143.449 11.8386 144.282 12.0823C144.639 12.2041 144.996 12.0823 145.234 11.9605C145.71 11.7168 146.186 12.0823 146.543 11.9605C147.138 11.595 147.495 11.9604 148.09 12.0823C148.804 12.2041 149.637 12.2041 150.351 11.9605C150.47 11.8386 150.708 11.7168 150.827 11.8386C151.422 12.0823 151.779 11.7168 152.136 11.595C152.612 11.4732 153.207 11.7168 153.445 11.1078C153.564 10.986 153.683 10.986 153.802 10.986C154.397 10.986 154.873 11.4732 155.468 11.1078H155.587C155.944 11.8386 156.658 11.595 157.134 11.7168C157.729 11.7168 158.205 11.595 158.681 11.7168C159.276 11.7168 159.871 11.7168 160.109 11.2296C160.228 10.986 160.466 11.1078 160.585 11.2296C160.942 11.595 161.299 11.4732 161.656 11.4732C162.013 11.4732 162.37 11.3514 162.846 11.3514C163.441 11.3514 164.155 11.4732 164.75 11.2296C165.464 10.986 166.059 11.3514 166.773 11.3514H167.368C168.558 11.3514 169.629 11.3514 170.819 11.1078C172.009 10.8641 173.199 11.3514 174.389 10.986C174.746 10.8641 175.222 10.8641 175.579 11.1078C176.055 11.3514 176.531 11.2296 177.007 11.1078C178.911 10.6205 180.815 10.986 182.6 10.8641C183.909 10.7423 185.337 10.8641 186.646 10.8641C187.36 10.986 187.836 10.4987 188.074 9.88965C188.907 10.8641 188.907 10.986 189.859 10.8641C190.692 10.7423 191.644 10.8641 192.477 10.6205H193.31C193.905 10.986 194.619 10.8641 195.333 10.8641C196.642 10.8641 197.951 10.7423 199.26 10.986C199.974 11.1078 200.688 10.7423 201.521 10.7423C201.64 10.7423 201.759 10.4987 201.878 10.3769C202.235 9.64604 202.235 10.1333 202.235 10.3769C202.354 10.7423 202.592 10.8641 202.83 10.8641C203.306 10.8641 203.901 10.6205 204.258 10.8641C204.734 11.2296 205.448 10.6205 206.043 10.7423C206.638 10.8642 207.233 10.986 207.828 11.2296H208.423C209.613 11.2296 210.684 11.2296 211.874 11.2296H213.54C213.897 11.2296 214.135 11.1078 214.492 11.2296C215.563 11.3514 216.634 11.2296 217.705 11.1078C218.419 10.986 219.133 10.986 219.847 11.2296C220.204 11.3514 220.68 11.1078 221.156 11.1078C221.275 11.1078 221.394 10.986 221.632 11.1078C222.465 11.4732 223.298 11.3514 224.131 11.1078L225.559 10.7423C226.154 10.6205 226.392 11.4732 226.987 11.2296C227.344 11.1078 227.582 11.2296 227.939 11.3514H229.843C230.439 11.3514 230.915 10.986 231.509 11.2296C232.105 11.4732 232.819 11.4732 233.414 11.4732H234.009C234.247 11.4732 234.485 11.4732 234.604 11.3514C235.08 10.8642 235.556 11.2296 236.151 11.2296H241.03C241.387 11.2296 241.744 10.986 241.863 10.4987C241.982 9.88965 242.101 9.15879 241.863 8.42792ZM126.67 11.1078C126.075 11.1078 125.599 10.986 125.123 11.4732C125.004 11.595 124.766 11.595 124.766 11.4732C124.29 11.2296 123.695 11.3514 123.219 11.3514C120.72 11.3514 118.34 11.9604 115.841 11.7168C115.841 11.7168 115.722 11.7168 115.722 11.8386C115.127 12.2041 114.413 12.0823 113.818 12.0823C113.461 12.0823 113.104 12.0823 112.866 12.2041C112.152 12.5695 111.319 12.5695 110.605 12.4477C109.891 12.3259 109.415 12.8131 108.701 13.0567C108.582 13.0567 108.463 13.3004 108.463 13.4222C108.344 13.544 108.344 13.7876 108.344 13.7876C108.225 13.9094 108.106 14.0312 107.987 14.0312C107.749 13.9094 107.749 13.6658 107.749 13.544C107.749 13.4222 107.868 13.3004 107.987 13.1786C108.106 12.8131 107.987 12.6913 107.63 12.6913C107.273 12.8131 106.797 12.9349 106.44 12.9349C105.488 12.6913 104.417 12.9349 103.465 12.9349C102.87 12.9349 102.394 12.9349 101.918 13.0567C101.442 13.1786 100.966 13.544 100.49 13.4222H98.9426C98.2286 13.544 97.5146 13.4222 96.8006 13.6658C96.3246 13.7876 95.8486 14.0312 95.3726 13.9094C94.6585 13.7876 94.1825 13.9094 93.5875 14.1531C92.9925 14.3967 92.5165 14.5185 91.8025 14.2749C91.4455 14.153 90.8505 14.1531 90.7315 14.3967C90.2555 14.8839 89.7795 14.6403 89.3035 14.6403H87.7565C87.1615 14.6403 86.6855 14.8839 86.0905 14.8839C85.3765 14.8839 84.6625 14.8839 84.1865 15.1275C83.5915 15.3712 82.9965 15.0057 82.4015 15.2494C81.3305 15.6148 80.1404 15.6148 79.0694 15.7366C77.6414 15.8584 76.4514 15.9802 75.4994 16.9547C75.4994 17.0765 75.2614 16.9547 75.1424 16.9547C75.1424 16.8329 75.1424 16.7111 75.2614 16.5893C75.2614 16.2238 75.1424 16.102 74.9044 16.2238L73.8334 16.5893C73.7144 16.5893 73.5954 16.8329 73.7144 16.9547C73.7144 17.0765 73.8334 17.0765 73.9524 17.0765C74.1904 16.9547 74.4284 16.8329 74.5474 17.0765C74.5474 17.1983 74.4284 17.442 74.3094 17.5638C74.1904 17.6856 73.9524 17.8074 74.1904 18.051C74.3094 18.1728 74.4284 18.2946 74.6664 18.2946C75.1424 18.2946 75.7374 18.051 76.3324 18.051C76.9274 18.051 77.4034 17.9292 77.6414 17.442C77.7604 17.1983 78.2364 17.1983 78.3554 17.442C78.7124 18.051 79.1884 18.051 79.6644 17.6856C80.2594 17.1983 80.8544 16.8329 81.5685 17.1983C81.8065 17.3201 82.1635 17.1983 82.5205 17.0765C82.8775 16.9547 82.9965 16.7111 82.9965 16.2238C82.9965 16.102 83.2345 15.8584 83.3535 15.8584C83.5915 15.8584 83.7105 16.102 83.8295 16.2238C83.8295 16.3457 83.8295 16.4675 83.7105 16.5893C83.7105 17.0765 83.8295 17.1983 84.1865 17.1983C84.9005 17.1983 85.0195 17.1983 85.0195 16.5893C85.0195 16.2238 85.1385 15.9802 85.3765 16.102C85.7335 16.2238 85.9715 16.3457 86.2095 16.5893C86.4475 16.7111 86.6855 16.8329 86.9235 16.8329C87.7565 16.8329 88.4705 16.8329 89.1845 16.7111C90.7315 16.4675 92.1595 15.9802 93.5875 15.9802C93.9445 15.9802 94.3015 15.6148 94.6585 15.8584C95.3726 16.3457 95.9676 15.7366 96.5626 15.7366C96.8006 15.7366 97.1576 15.6148 97.3956 15.7366C97.9906 15.9802 98.4666 15.7366 98.9426 15.7366C99.7756 15.7366 100.49 15.0057 101.323 15.493C102.632 15.2493 104.06 15.2494 105.369 15.2494C105.964 15.2494 106.559 15.0057 106.916 14.5185C107.273 14.0312 107.154 14.3967 107.392 14.6403C107.511 14.7621 107.749 14.8839 107.868 14.8839L109.058 14.5185H110.724C111.319 14.5185 112.033 14.2749 112.628 14.5185C112.866 14.5185 113.104 14.5185 113.342 14.3967C114.532 14.2749 115.603 13.7876 116.793 13.9094L117.031 13.6658C117.15 13.544 117.15 13.4222 117.269 13.6658C117.507 13.7876 117.626 14.0312 117.983 14.0312C118.578 14.0312 119.173 13.7876 119.768 13.9094C119.887 14.0312 120.006 13.7876 119.887 13.6658C119.887 13.544 119.887 13.3004 120.006 13.4222C120.958 13.7876 121.91 13.544 122.862 13.544H125.956C126.432 13.544 126.432 13.3004 126.432 12.8131C126.313 12.4477 126.313 12.3259 126.789 12.3259C127.027 12.3259 127.027 12.2041 127.146 11.9605C127.265 11.7168 127.741 11.4732 127.384 11.1078C127.146 10.8641 126.908 11.1078 126.67 11.1078ZM72.8814 16.9547H71.6914C71.0964 16.8329 70.5014 17.3201 69.9064 17.1983C68.8354 16.9547 68.1214 17.442 67.2884 17.6856C66.9314 17.8074 66.9314 18.1728 66.9314 18.5383V18.7819C67.7644 18.9037 68.7164 18.9037 69.5494 18.9037C69.9064 18.9037 70.2634 18.7819 70.3824 18.5383C70.6204 18.1728 70.8584 17.8074 71.0964 17.5638C71.4534 17.1983 71.9294 17.8074 72.4054 17.5638C72.5244 17.442 72.7624 17.5638 72.8814 17.5638C73.0004 17.5638 73.1194 17.3201 73.1194 17.1983C73.0004 17.1983 73.0004 16.9547 72.8814 16.9547ZM66.3363 17.8074C66.0983 17.6856 65.8603 17.6856 65.6223 17.6856C65.0273 17.6856 64.4323 17.6856 63.9563 18.1728C63.7183 18.4165 63.2423 18.5383 62.8853 18.2946C62.4093 18.051 61.9333 18.1728 61.4573 18.5383C60.9813 18.9037 60.9813 19.0255 60.2673 19.7564C60.1483 19.8782 60.1483 19.8782 60.2673 20C60.6243 20 60.9813 20 61.2193 19.7564C61.6953 19.2691 62.2903 19.1473 63.0043 19.2691C64.1943 19.5127 65.5033 19.1473 66.6933 19.1473C66.8124 19.1473 66.8124 18.9037 66.9314 18.9037L66.5743 18.5383C66.4553 18.2946 66.5743 17.9292 66.3363 17.8074Z" fill="#662592"/>
</g>
</svg>
