<svg width="65" height="46" viewBox="0 0 65 46" fill="none" xmlns="http://www.w3.org/2000/svg">
<g id="Frame 35560">
<g id="Group 2">
<path id="Vector" d="M26.6701 5.48752C28.7342 3.33689 31.6078 2.00302 34.7858 2.00302C39.0106 2.00302 42.6965 4.35878 44.6594 7.85597C46.3652 7.09387 48.2533 6.66989 50.2398 6.66989C57.8595 6.66989 64.0371 12.9013 64.0371 20.5876C64.0371 28.2749 57.8595 34.5062 50.2398 34.5062C49.3271 34.5068 48.4167 34.4161 47.522 34.2354C45.7935 37.3187 42.4996 39.402 38.7189 39.402C37.1362 39.402 35.6392 39.0364 34.3063 38.3863C32.554 42.508 28.4716 45.398 23.7135 45.398C18.7585 45.398 14.5356 42.2628 12.9146 37.8658C12.2063 38.0162 11.4724 38.0946 10.7193 38.0946C4.81981 38.0947 0.0371094 33.2628 0.0371094 27.3013C0.0371094 23.3063 2.18595 19.8181 5.37864 17.952C4.72135 16.4395 4.35573 14.7702 4.35573 13.0152C4.35573 6.15936 9.92155 0.601807 16.7865 0.601807C20.8171 0.601807 24.3991 2.51816 26.6701 5.48752Z" fill="#00A1E0"/>
<path id="Vector_2" d="M9.30694 23.8321C9.26683 23.937 9.32154 23.9589 9.33429 23.9771C9.45461 24.0646 9.57684 24.1276 9.69991 24.1977C10.3527 24.5441 10.969 24.6453 11.6136 24.6453C12.9264 24.6453 13.7414 23.947 13.7414 22.8229V22.801C13.7414 21.7616 12.8216 21.3842 11.9582 21.1116L11.8461 21.0752C11.1951 20.8637 10.6335 20.6814 10.6335 20.2529V20.2301C10.6335 19.8636 10.9617 19.5937 11.4704 19.5937C12.0357 19.5937 12.7067 19.7816 13.1388 20.0204C13.1388 20.0204 13.2655 20.1024 13.312 19.9794C13.3375 19.9137 13.5564 19.3248 13.5792 19.261C13.6038 19.1916 13.56 19.1406 13.5154 19.1132C13.0221 18.8133 12.3402 18.6082 11.6346 18.6082L11.5033 18.6091C10.3017 18.6091 9.463 19.3348 9.463 20.375V20.3969C9.463 21.4936 10.3883 21.8492 11.2554 22.0971L11.3948 22.14C12.0266 22.3342 12.5709 22.501 12.5709 22.9459V22.9678C12.5709 23.3745 12.2172 23.6771 11.6465 23.6771C11.425 23.6771 10.7184 23.6725 9.95533 23.1902C9.86321 23.1364 9.80946 23.0973 9.73834 23.0544C9.70099 23.0307 9.60708 22.9896 9.56608 23.1137L9.30694 23.8321ZM28.526 23.8321C28.4859 23.937 28.5406 23.9589 28.5534 23.9771C28.6737 24.0646 28.7959 24.1276 28.9189 24.1977C29.5717 24.5441 30.1881 24.6453 30.8326 24.6453C32.1454 24.6453 32.9605 23.947 32.9605 22.8229V22.801C32.9605 21.7616 32.0406 21.3842 31.1772 21.1116L31.0651 21.0752C30.4141 20.8637 29.8525 20.6814 29.8525 20.2529V20.2301C29.8525 19.8636 30.1807 19.5937 30.6894 19.5937C31.2546 19.5937 31.9257 19.7816 32.3578 20.0204C32.3578 20.0204 32.4845 20.1024 32.531 19.9794C32.5565 19.9137 32.7753 19.3248 32.7981 19.261C32.8228 19.1916 32.779 19.1406 32.7343 19.1132C32.2411 18.8133 31.5591 18.6082 30.8535 18.6082L30.7222 18.6091C29.5206 18.6091 28.6819 19.3348 28.6819 20.375V20.3969C28.6819 21.4936 29.6072 21.8492 30.4743 22.0971L30.6137 22.14C31.2455 22.3342 31.7908 22.501 31.7908 22.9459V22.9678C31.7908 23.3745 31.4361 23.6771 30.8654 23.6771C30.6439 23.6771 29.9374 23.6725 29.1743 23.1902C29.0822 23.1364 29.0275 23.099 28.9583 23.0544C28.9345 23.0389 28.8233 22.996 28.785 23.1137L28.526 23.8321ZM41.6464 21.6302C41.6464 22.2657 41.5279 22.7662 41.2945 23.1199C41.0638 23.47 40.7147 23.6405 40.2279 23.6405C39.7402 23.6405 39.3928 23.4709 39.1658 23.1199C38.936 22.7671 38.8194 22.2657 38.8194 21.6302C38.8194 20.9958 38.936 20.4961 39.1658 20.146C39.3928 19.7996 39.7402 19.6309 40.2279 19.6309C40.7147 19.6309 41.0639 19.7996 41.2955 20.146C41.528 20.4961 41.6464 20.9957 41.6464 21.6302ZM42.7423 20.4524C42.6347 20.0885 42.4669 19.7677 42.2436 19.5006C42.0202 19.2325 41.7376 19.0174 41.4021 18.8606C41.0675 18.7047 40.6719 18.6254 40.2279 18.6254C39.783 18.6254 39.3873 18.7047 39.0527 18.8606C38.7172 19.0174 38.4346 19.2326 38.2103 19.5006C37.9879 19.7686 37.8201 20.0895 37.7117 20.4524C37.605 20.8143 37.5512 21.2099 37.5512 21.6302C37.5512 22.0506 37.605 22.4471 37.7117 22.8081C37.8201 23.171 37.987 23.492 38.2113 23.7599C38.4346 24.028 38.7182 24.2422 39.0528 24.3944C39.3882 24.5467 39.783 24.6242 40.228 24.6242C40.6719 24.6242 41.0667 24.5467 41.4021 24.3944C41.7367 24.2422 42.0202 24.0279 42.2437 23.7599C42.467 23.4928 42.6347 23.1719 42.7424 22.8081C42.85 22.4462 42.9037 22.0496 42.9037 21.6302C42.9037 21.2109 42.8499 20.8143 42.7423 20.4524ZM51.7412 23.4708C51.7047 23.3641 51.6017 23.4042 51.6017 23.4042C51.4422 23.4654 51.2725 23.5219 51.0921 23.5501C50.9088 23.5783 50.7073 23.593 50.4912 23.593C49.9607 23.593 49.5395 23.4353 49.2378 23.1235C48.935 22.8117 48.7655 22.3075 48.7673 21.6256C48.7691 21.0047 48.9186 20.5379 49.1876 20.1824C49.4547 19.8287 49.8613 19.6472 50.4038 19.6472C50.856 19.6472 51.2006 19.6992 51.5615 19.8131C51.5615 19.8131 51.6482 19.8505 51.6892 19.7375C51.7849 19.4712 51.856 19.2807 51.9581 18.9881C51.9873 18.9051 51.9162 18.8695 51.8906 18.8595C51.7484 18.8039 51.4129 18.7137 51.1595 18.6754C50.9224 18.6389 50.6453 18.6197 50.3372 18.6197C49.8767 18.6197 49.4665 18.6982 49.1155 18.855C48.7654 19.0109 48.4682 19.226 48.233 19.4941C47.9978 19.7621 47.8191 20.083 47.6997 20.4458C47.5812 20.8077 47.521 21.2052 47.521 21.6256C47.521 22.5345 47.7663 23.2693 48.2504 23.8072C48.7354 24.3469 49.4638 24.6213 50.4138 24.6213C50.9754 24.6213 51.5516 24.5074 51.9655 24.3442C51.9655 24.3442 52.0448 24.3059 52.0102 24.2139L51.7412 23.4708ZM53.6586 21.0215C53.7105 20.6687 53.8081 20.3751 53.9585 20.1463C54.1855 19.799 54.5319 19.6085 55.0188 19.6085C55.5057 19.6085 55.8275 19.7999 56.0581 20.1463C56.2113 20.3751 56.2779 20.6815 56.3043 21.0215H53.6586ZM57.3481 20.2456C57.2552 19.8946 57.0245 19.54 56.8732 19.3777C56.6343 19.1206 56.4009 18.941 56.1694 18.8407C55.8666 18.7112 55.5038 18.6256 55.1063 18.6256C54.6432 18.6256 54.2229 18.7031 53.8819 18.8635C53.5401 19.024 53.253 19.2428 53.0277 19.5154C52.8025 19.7871 52.6329 20.1107 52.5253 20.4781C52.4169 20.8437 52.3622 21.2421 52.3622 21.6623C52.3622 22.09 52.4187 22.4884 52.5308 22.8466C52.6439 23.2077 52.8244 23.5258 53.0687 23.7893C53.3121 24.0546 53.6258 24.2625 54.0014 24.4074C54.3743 24.5514 54.8274 24.6262 55.3479 24.6252C56.4192 24.6216 56.9835 24.3828 57.216 24.2542C57.257 24.2314 57.2962 24.1913 57.2469 24.0765L57.0044 23.3972C56.968 23.296 56.865 23.3334 56.865 23.3334C56.5996 23.4319 56.2223 23.6087 55.3424 23.6069C54.7672 23.606 54.3405 23.4365 54.0733 23.1711C53.7989 22.8995 53.6649 22.5001 53.6412 21.9367L57.3508 21.9404C57.3508 21.9404 57.4483 21.9386 57.4584 21.8437C57.4621 21.8037 57.5861 21.0817 57.3481 20.2456ZM23.9498 21.0215C24.0027 20.6687 24.0993 20.3751 24.2498 20.1463C24.4767 19.799 24.8232 19.6085 25.31 19.6085C25.7968 19.6085 26.1187 19.7999 26.3502 20.1463C26.5024 20.3751 26.569 20.6815 26.5955 21.0215H23.9498ZM27.6384 20.2456C27.5455 19.8946 27.3157 19.54 27.1644 19.3777C26.9255 19.1206 26.6921 18.941 26.4606 18.8407C26.1579 18.7112 25.7951 18.6256 25.3976 18.6256C24.9354 18.6256 24.5141 18.7031 24.1732 18.8635C23.8313 19.024 23.5442 19.2428 23.319 19.5154C23.0938 19.7871 22.9242 20.1107 22.8166 20.4781C22.7091 20.8437 22.6535 21.2421 22.6535 21.6623C22.6535 22.09 22.71 22.4884 22.8221 22.8466C22.9352 23.2077 23.1158 23.5258 23.36 23.7893C23.6035 24.0546 23.9171 24.2625 24.2927 24.4074C24.6656 24.5514 25.1187 24.6262 25.6392 24.6252C26.7105 24.6216 27.2748 24.3828 27.5073 24.2542C27.5483 24.2314 27.5875 24.1913 27.5383 24.0765L27.2967 23.3972C27.2593 23.296 27.1563 23.3334 27.1563 23.3334C26.891 23.4319 26.5145 23.6087 25.6329 23.6069C25.0586 23.606 24.6319 23.4365 24.3647 23.1711C24.0903 22.8995 23.9563 22.5001 23.9326 21.9367L27.6422 21.9404C27.6422 21.9404 27.7397 21.9386 27.7498 21.8437C27.7533 21.8037 27.8773 21.0817 27.6384 20.2456ZM15.9315 23.4505C15.7865 23.3347 15.7665 23.3055 15.7173 23.2308C15.6443 23.1168 15.6069 22.9545 15.6069 22.7485C15.6069 22.4221 15.7145 22.1878 15.9379 22.0301C15.9352 22.031 16.257 21.752 17.0137 21.762C17.5451 21.7693 18.0201 21.8477 18.0201 21.8477V23.5344H18.021C18.021 23.5344 17.5497 23.6355 17.0191 23.6674C16.2642 23.713 15.9287 23.4496 15.9315 23.4505ZM17.4075 20.844C17.257 20.833 17.0619 20.8266 16.8285 20.8266C16.5104 20.8266 16.2031 20.8667 15.915 20.9443C15.6251 21.0217 15.3644 21.143 15.1401 21.3034C14.9162 21.4632 14.7321 21.6726 14.6022 21.9151C14.4709 22.1595 14.4044 22.4476 14.4044 22.7703C14.4044 23.0985 14.4609 23.3839 14.574 23.6173C14.687 23.8516 14.8502 24.0467 15.058 24.1972C15.2641 24.3476 15.5185 24.4578 15.8138 24.5244C16.1046 24.591 16.4346 24.6247 16.7957 24.6247C17.1759 24.6247 17.5551 24.5937 17.9225 24.5307C18.2863 24.4687 18.733 24.3785 18.857 24.3503C18.9439 24.3293 19.0305 24.3071 19.1168 24.2837C19.2089 24.261 19.2016 24.1624 19.2016 24.1624L19.1998 20.7701C19.1998 20.0261 19.001 19.4746 18.6099 19.1327C18.2206 18.7918 17.6472 18.6194 16.906 18.6194C16.6279 18.6194 16.1803 18.6577 15.9123 18.7115C15.9123 18.7115 15.1018 18.8683 14.7681 19.1291C14.7681 19.1291 14.6952 19.1747 14.7353 19.2768L14.9979 19.9825C15.0307 20.0736 15.1191 20.0426 15.1191 20.0426C15.1191 20.0426 15.1474 20.0317 15.1803 20.0125C15.8941 19.6241 16.7967 19.636 16.7967 19.636C17.1978 19.636 17.506 19.7162 17.7138 19.8757C17.9162 20.0307 18.0192 20.265 18.0192 20.7591V20.9159C17.7001 20.8704 17.4075 20.844 17.4075 20.844ZM47.3272 18.9326C47.3554 18.8487 47.2962 18.8085 47.2716 18.7995C47.2087 18.7749 46.8933 18.7083 46.6498 18.6928C46.184 18.6645 45.9251 18.7429 45.6935 18.8469C45.4637 18.9508 45.2085 19.1185 45.0662 19.3091V18.8578C45.0662 18.7949 45.0216 18.7447 44.9595 18.7447H44.0086C43.9467 18.7447 43.902 18.7948 43.902 18.8578V24.3908C43.902 24.4528 43.9531 24.5038 44.0151 24.5038H44.9897C45.0195 24.5037 45.0481 24.4917 45.0691 24.4705C45.0901 24.4493 45.1019 24.4206 45.1018 24.3908V21.6266C45.1018 21.2555 45.1428 20.8854 45.2249 20.653C45.3051 20.4232 45.4145 20.239 45.5494 20.1068C45.6853 19.9755 45.8393 19.8835 46.008 19.8315C46.1803 19.7786 46.3708 19.7613 46.5058 19.7613C46.7 19.7613 46.9133 19.8114 46.9133 19.8114C46.9844 19.8196 47.0245 19.7759 47.0482 19.7111C47.112 19.5416 47.2926 19.0337 47.3272 18.9326Z" fill="white"/>
<path id="Vector_3" d="M38.1794 16.3683C38.0608 16.3318 37.9533 16.3071 37.8129 16.2807C37.6706 16.2552 37.5011 16.2424 37.3087 16.2424C36.6377 16.2424 36.1089 16.4321 35.7379 16.8058C35.3686 17.1778 35.1179 17.744 34.992 18.4888L34.9464 18.7395H34.1041C34.1041 18.7395 34.002 18.7359 33.9801 18.8471L33.8425 19.6193C33.8324 19.6923 33.8644 19.7387 33.9628 19.7387H34.7824L33.9509 24.381C33.8862 24.7548 33.8114 25.0621 33.7284 25.2954C33.6473 25.5252 33.568 25.6975 33.4696 25.8233C33.3748 25.9437 33.2854 26.033 33.1303 26.0849C33.0027 26.1278 32.8551 26.1478 32.6937 26.1478C32.6043 26.1478 32.485 26.1332 32.3965 26.115C32.309 26.0976 32.2625 26.0785 32.1959 26.0502C32.1959 26.0502 32.1002 26.0138 32.0619 26.1095C32.0318 26.1888 31.813 26.7896 31.7865 26.8635C31.761 26.9373 31.7975 26.9948 31.8439 27.012C31.9534 27.0504 32.0345 27.0759 32.1831 27.1114C32.3892 27.1598 32.5632 27.1625 32.7264 27.1625C33.0674 27.1625 33.3792 27.1142 33.6372 27.0212C33.8962 26.9273 34.1222 26.7641 34.3228 26.5435C34.5389 26.3046 34.6747 26.0548 34.8042 25.713C34.9327 25.3756 35.0431 24.9562 35.1306 24.4676L35.9666 19.7387H37.1882C37.1882 19.7387 37.2912 19.7424 37.3123 19.6303L37.4508 18.859C37.4599 18.7852 37.4289 18.7396 37.3295 18.7396H36.1434C36.1498 18.7132 36.2036 18.2956 36.3394 17.9027C36.3978 17.7359 36.5072 17.6 36.5993 17.507C36.6905 17.4158 36.7953 17.3511 36.9103 17.3137C37.0278 17.2754 37.1619 17.2572 37.3087 17.2572C37.4199 17.2572 37.5301 17.27 37.6131 17.2873C37.728 17.3119 37.7726 17.3247 37.8028 17.3338C37.9241 17.3703 37.9404 17.3347 37.9642 17.2764L38.2477 16.4979C38.2769 16.4138 38.2049 16.3782 38.1794 16.3683ZM21.6073 24.3911C21.6073 24.4531 21.5626 24.5032 21.5006 24.5032H20.5169C20.4549 24.5032 20.4111 24.4531 20.4111 24.3911V16.474C20.4111 16.4121 20.4549 16.3619 20.5169 16.3619H21.5006C21.5626 16.3619 21.6073 16.4121 21.6073 16.474V24.3911Z" fill="white"/>
</g>
</g>
</svg>
