<svg width="1128" height="954" viewBox="0 0 1128 954" fill="none" xmlns="http://www.w3.org/2000/svg">
<g filter="url(#filter0_f_33_1877)">
<path d="M100 263.711C100 256.167 105.268 249.649 112.643 248.067L525.566 159.47C527.019 159.158 528.509 159.05 529.991 159.15L887.63 183.081C895.193 183.587 901.363 189.33 902.409 196.838L968.125 668.591C969.206 676.354 964.504 683.758 957.018 686.08L608.887 794.066C603.093 795.864 596.78 794.229 592.586 789.845L438.269 628.534C435.055 625.174 430.539 623.379 425.895 623.615L116.812 639.319C107.668 639.784 100 632.495 100 623.34V263.711Z" fill="#D9D9D9" fill-opacity="0.23"/>
</g>
<defs>
<filter id="filter0_f_33_1877" x="-59" y="0.113831" width="1186.28" height="953.671" filterUnits="userSpaceOnUse" color-interpolation-filters="sRGB">
<feFlood flood-opacity="0" result="BackgroundImageFix"/>
<feBlend mode="normal" in="SourceGraphic" in2="BackgroundImageFix" result="shape"/>
<feGaussianBlur stdDeviation="79.5" result="effect1_foregroundBlur_33_1877"/>
</filter>
</defs>
</svg>
