<svg width="1150" height="971" viewBox="0 0 1150 971" fill="none" xmlns="http://www.w3.org/2000/svg">
<g filter="url(#filter0_f_33_1867)">
<path d="M64 266.258C64 258.669 69.3316 252.124 76.7641 250.589L518.161 159.436C519.563 159.147 520.997 159.047 522.426 159.139L905.04 183.781C912.587 184.267 918.763 189.971 919.846 197.456L990.021 682.319C991.158 690.172 986.367 697.672 978.763 699.942L605.901 811.261C600.251 812.947 594.132 811.39 589.976 807.209L424.44 640.663C421.245 637.448 416.837 635.74 412.311 635.961L80.7815 652.174C71.649 652.62 64 645.336 64 636.193V266.258Z" fill="#D9D9D9" fill-opacity="0.23"/>
</g>
<defs>
<filter id="filter0_f_33_1867" x="-95" y="0.105469" width="1244.19" height="970.824" filterUnits="userSpaceOnUse" color-interpolation-filters="sRGB">
<feFlood flood-opacity="0" result="BackgroundImageFix"/>
<feBlend mode="normal" in="SourceGraphic" in2="BackgroundImageFix" result="shape"/>
<feGaussianBlur stdDeviation="79.5" result="effect1_foregroundBlur_33_1867"/>
</filter>
</defs>
</svg>
