<svg width="52" height="52" viewBox="0 0 52 52" fill="none" xmlns="http://www.w3.org/2000/svg">
<g id="slack">
<path id="vector" d="M47.0004 23.9996C49.7616 23.9996 52 21.7612 52 19.0001C52 16.2389 49.7614 14.0005 47.0002 14.0005C44.2388 14.0005 42 16.2391 42 19.0005V23.9996H47.0004ZM33 23.9996C35.7614 23.9996 38 21.7611 38 18.9996V5.00049C38 2.23906 35.7614 0.000488281 33 0.000488281C30.2386 0.000488281 28 2.23906 28 5.00049V18.9996C28 21.7611 30.2386 23.9996 33 23.9996Z" fill="#2EB67D"/>
<path id="vector_2" d="M4.99957 28.0004C2.23839 28.0004 1.90735e-06 30.2388 1.90735e-06 32.9999C1.90735e-06 35.7611 2.2386 37.9995 4.99979 37.9995C7.76121 37.9995 10 35.7609 10 32.9995V28.0004H4.99957ZM19 28.0004C16.2386 28.0004 14 30.2389 14 33.0004V46.9995C14 49.7609 16.2386 51.9995 19 51.9995C21.7614 51.9995 24 49.7609 24 46.9995V33.0004C24 30.2389 21.7614 28.0004 19 28.0004Z" fill="#E01E5A"/>
<path id="vector_3" d="M28.0004 47.0004C28.0004 49.7616 30.2388 52 32.9999 52C35.7611 52 37.9995 49.7614 37.9995 47.0002C37.9995 44.2388 35.7609 42 32.9995 42L28.0004 42L28.0004 47.0004ZM28.0004 33C28.0004 35.7614 30.2389 38 33.0004 38L46.9995 38C49.7609 38 51.9995 35.7614 51.9995 33C51.9995 30.2386 49.7609 28 46.9995 28L33.0004 28C30.2389 28 28.0004 30.2386 28.0004 33Z" fill="#ECB22E"/>
<path id="vector_4" d="M23.9996 4.99957C23.9996 2.23839 21.7612 2.85854e-06 19.0001 2.73785e-06C16.2389 2.61715e-06 14.0005 2.2386 14.0005 4.99979C14.0005 7.76121 16.2391 10 19.0005 10L23.9996 10L23.9996 4.99957ZM23.9996 19C23.9996 16.2386 21.7611 14 18.9996 14L5.00049 14C2.23906 14 0.000488621 16.2386 0.0004885 19C0.000488379 21.7614 2.23906 24 5.00049 24L18.9996 24C21.7611 24 23.9996 21.7614 23.9996 19Z" fill="#36C5F0"/>
</g>
</svg>
