<svg width="51" height="48" viewBox="0 0 51 48" fill="none" xmlns="http://www.w3.org/2000/svg">
<g filter="url(#filter0_d_50_216)">
<path d="M23.0938 31.25H5.125C4.26562 31.25 3.5625 30.5469 3.5625 29.6875V3.125C3.5625 2.26562 4.26562 1.5625 5.125 1.5625H43.4062C44.2656 1.5625 44.9688 2.26562 44.9688 3.125V21.0938C44.9688 21.5234 45.3203 21.875 45.75 21.875C46.1797 21.875 46.5312 21.5234 46.5312 21.0938V3.125C46.5312 1.39844 45.1328 0 43.4062 0H5.125C3.39844 0 2 1.39844 2 3.125V29.6875C2 31.4141 3.39844 32.8125 5.125 32.8125H23.0938C23.5234 32.8125 23.875 32.4609 23.875 32.0312C23.875 31.6016 23.5234 31.25 23.0938 31.25Z" fill="#B902CA"/>
<path d="M37.9375 20.3125V26.6016C40.3984 26.9453 42.3359 28.9375 42.6016 31.4375H48.875C48.5859 25.4922 43.8594 20.6953 37.9375 20.3125Z" fill="black"/>
<path d="M41.4453 35.4219L45.875 39.8594C46.7813 38.8594 47.4922 37.7266 48 36.5078C48.4531 35.3984 48.7422 34.2188 48.8438 33H42.5391C42.375 33.8828 42 34.7109 41.4375 35.4141L41.4453 35.4219Z" fill="black"/>
<path d="M37.1641 37.4922C34.1484 37.4922 31.6953 35.0391 31.6953 32.0156C31.6953 29.2656 33.7344 26.9766 36.375 26.6016V20.3125C30.2734 20.7188 25.4375 25.8125 25.4375 32.0156C25.4375 38.2188 30.6953 43.75 37.1641 43.75C39.9766 43.75 42.6328 42.7656 44.7656 40.9453L40.3203 36.4922C39.4062 37.1406 38.3125 37.4922 37.1719 37.4922H37.1641Z" fill="black"/>
<path d="M26.2187 12.5C26.2187 12.0859 26.1016 11.6953 25.9062 11.3594L28.4766 8.42188C28.7422 8.53125 29.0313 8.59375 29.3359 8.59375C29.6406 8.59375 29.9297 8.53125 30.1953 8.42188L32.7656 11.3594C32.5781 11.6953 32.4531 12.0859 32.4531 12.5C32.4531 13.7891 33.5078 14.8438 34.7969 14.8438C36.0859 14.8438 37.1406 13.7891 37.1406 12.5C37.1406 12.0859 37.0234 11.6953 36.8281 11.3594L39.3984 8.42188C39.6641 8.53125 39.9531 8.59375 40.2578 8.59375C41.5469 8.59375 42.6016 7.53906 42.6016 6.25C42.6016 4.96094 41.5469 3.90625 40.2578 3.90625C38.9688 3.90625 37.9141 4.96094 37.9141 6.25C37.9141 6.66406 38.0312 7.05469 38.2266 7.39062L35.6562 10.3281C35.3906 10.2187 35.1016 10.1562 34.7969 10.1562C34.4922 10.1562 34.2031 10.2187 33.9375 10.3281L31.3672 7.39062C31.5547 7.05469 31.6797 6.66406 31.6797 6.25C31.6797 4.96094 30.625 3.90625 29.3359 3.90625C28.0469 3.90625 26.9922 4.96094 26.9922 6.25C26.9922 6.66406 27.1094 7.05469 27.3047 7.39062L24.7344 10.3281C24.4688 10.2187 24.1797 10.1562 23.875 10.1562C22.5859 10.1562 21.5312 11.2109 21.5312 12.5C21.5312 13.7891 22.5859 14.8438 23.875 14.8438C25.1641 14.8438 26.2187 13.7891 26.2187 12.5Z" fill="#B902CA"/>
<path d="M9.8125 18.75H6.6875C6.25603 18.75 5.90625 19.0998 5.90625 19.5312V28.125C5.90625 28.5565 6.25603 28.9062 6.6875 28.9062H9.8125C10.244 28.9062 10.5938 28.5565 10.5938 28.125V19.5312C10.5938 19.0998 10.244 18.75 9.8125 18.75Z" fill="#B902CA"/>
<path d="M16.0625 15.625H12.9375C12.506 15.625 12.1562 15.9748 12.1562 16.4062V28.125C12.1562 28.5565 12.506 28.9062 12.9375 28.9062H16.0625C16.494 28.9062 16.8438 28.5565 16.8438 28.125V16.4062C16.8438 15.9748 16.494 15.625 16.0625 15.625Z" fill="#B902CA"/>
<path d="M22.3125 21.0938H19.1875C18.756 21.0938 18.4062 21.4435 18.4062 21.875V28.125C18.4062 28.5565 18.756 28.9062 19.1875 28.9062H22.3125C22.744 28.9062 23.0938 28.5565 23.0938 28.125V21.875C23.0938 21.4435 22.744 21.0938 22.3125 21.0938Z" fill="#B902CA"/>
<path d="M6.6875 5.46875H8.25C8.67969 5.46875 9.03125 5.11719 9.03125 4.6875C9.03125 4.25781 8.67969 3.90625 8.25 3.90625H6.6875C6.25781 3.90625 5.90625 4.25781 5.90625 4.6875C5.90625 5.11719 6.25781 5.46875 6.6875 5.46875Z" fill="#B902CA"/>
<path d="M11.375 5.46875H17.625C18.0547 5.46875 18.4062 5.11719 18.4062 4.6875C18.4062 4.25781 18.0547 3.90625 17.625 3.90625H11.375C10.9453 3.90625 10.5938 4.25781 10.5938 4.6875C10.5938 5.11719 10.9453 5.46875 11.375 5.46875Z" fill="#B902CA"/>
<path d="M6.6875 9.375H8.25C8.67969 9.375 9.03125 9.02344 9.03125 8.59375C9.03125 8.16406 8.67969 7.8125 8.25 7.8125H6.6875C6.25781 7.8125 5.90625 8.16406 5.90625 8.59375C5.90625 9.02344 6.25781 9.375 6.6875 9.375Z" fill="#B902CA"/>
<path d="M11.375 9.375H17.625C18.0547 9.375 18.4062 9.02344 18.4062 8.59375C18.4062 8.16406 18.0547 7.8125 17.625 7.8125H11.375C10.9453 7.8125 10.5938 8.16406 10.5938 8.59375C10.5938 9.02344 10.9453 9.375 11.375 9.375Z" fill="#B902CA"/>
<path d="M6.6875 13.2812H8.25C8.67969 13.2812 9.03125 12.9297 9.03125 12.5C9.03125 12.0703 8.67969 11.7188 8.25 11.7188H6.6875C6.25781 11.7188 5.90625 12.0703 5.90625 12.5C5.90625 12.9297 6.25781 13.2812 6.6875 13.2812Z" fill="#B902CA"/>
<path d="M18.4062 12.5C18.4062 12.0703 18.0547 11.7188 17.625 11.7188H11.375C10.9453 11.7188 10.5938 12.0703 10.5938 12.5C10.5938 12.9297 10.9453 13.2812 11.375 13.2812H17.625C18.0547 13.2812 18.4062 12.9297 18.4062 12.5Z" fill="#B902CA"/>
</g>
<defs>
<filter id="filter0_d_50_216" x="0" y="0" width="50.875" height="47.75" filterUnits="userSpaceOnUse" color-interpolation-filters="sRGB">
<feFlood flood-opacity="0" result="BackgroundImageFix"/>
<feColorMatrix in="SourceAlpha" type="matrix" values="0 0 0 0 0 0 0 0 0 0 0 0 0 0 0 0 0 0 127 0" result="hardAlpha"/>
<feOffset dy="2"/>
<feGaussianBlur stdDeviation="1"/>
<feComposite in2="hardAlpha" operator="out"/>
<feColorMatrix type="matrix" values="0 0 0 0 0.937255 0 0 0 0 0.54902 0 0 0 0 1 0 0 0 0.21 0"/>
<feBlend mode="normal" in2="BackgroundImageFix" result="effect1_dropShadow_50_216"/>
<feBlend mode="normal" in="SourceGraphic" in2="effect1_dropShadow_50_216" result="shape"/>
</filter>
</defs>
</svg>
