<svg width="44" height="44" viewBox="0 0 44 44" fill="none" xmlns="http://www.w3.org/2000/svg">
<path fill-rule="evenodd" clip-rule="evenodd" d="M42.7057 41.6416C42.7057 41.756 42.6602 41.8657 42.5794 41.9466C42.4985 42.0275 42.3887 42.073 42.2743 42.073H1.72532C1.61092 42.073 1.50118 42.0275 1.42025 41.9466C1.33941 41.8657 1.29395 41.756 1.29395 41.6416V40.4311C1.29395 40.3167 1.33941 40.2071 1.42025 40.1261C1.50118 40.0452 1.61092 39.9997 1.72532 39.9997H42.2743C42.3887 39.9997 42.4985 40.0452 42.5794 40.1261C42.6602 40.2071 42.7057 40.3167 42.7057 40.4311V41.6416ZM3.97536 38.6194V14.0264C3.97536 13.912 4.02082 13.8022 4.10175 13.7213C4.18259 13.6405 4.29233 13.595 4.40673 13.595H9.02992C9.14432 13.595 9.25406 13.6405 9.3349 13.7213C9.41583 13.8022 9.46129 13.912 9.46129 14.0264V38.6194H3.97536ZM14.1614 38.6194V19.207C14.1614 18.9687 14.3546 18.7756 14.5928 18.7756H19.2183C19.4566 18.7756 19.6497 18.9687 19.6497 19.207V38.6194H14.1614ZM24.3499 38.6194V24.965C24.3499 24.8506 24.3953 24.7409 24.4763 24.6601C24.5572 24.5791 24.6669 24.5337 24.7813 24.5337H29.4044C29.5188 24.5337 29.6286 24.5791 29.7095 24.6601C29.7904 24.7409 29.8358 24.8506 29.8358 24.965V38.6194H24.3499ZM34.5384 38.6194V30.4818C34.5384 30.3673 34.5838 30.2576 34.6648 30.1767C34.7456 30.0958 34.8553 30.0503 34.9697 30.0503H39.5929C39.7073 30.0503 39.8171 30.0958 39.8979 30.1767C39.9788 30.2576 40.0243 30.3673 40.0243 30.4818V38.6194H34.5384ZM38.2461 21.4995L38.0927 21.283C37.7486 20.7974 37.8635 20.1237 38.3491 19.7796C38.8347 19.4354 39.5084 19.5504 39.8525 20.036L41.5071 22.3709C41.6778 22.6119 41.7423 22.9123 41.6854 23.2021C41.6286 23.4919 41.4554 23.7457 41.2063 23.9042L38.792 25.4408C38.2898 25.7604 37.6228 25.6122 37.3032 25.1101C36.9836 24.6079 37.1318 23.9408 37.6339 23.6212L37.6861 23.588C26.2471 21.3486 15.4236 15.5489 7.26414 5.56026C6.88764 5.09929 6.95614 4.41936 7.41711 4.04286C7.87807 3.66627 8.558 3.73477 8.93459 4.19574C16.7907 13.8131 27.2268 19.3731 38.2461 21.4995ZM30.588 1.10004C35.0217 1.10004 38.615 4.69337 38.615 9.12702C38.615 13.5607 35.0217 17.154 30.588 17.154C26.1545 17.154 22.561 13.5607 22.561 9.12702C22.561 4.69337 26.1545 1.10004 30.588 1.10004ZM35.3013 13.8137C36.4963 12.612 37.2346 10.9559 37.2346 9.12702C37.2346 5.45586 34.2593 2.48043 30.588 2.48043C26.9169 2.48043 23.9414 5.45586 23.9414 9.12702C23.9414 10.9559 24.6799 12.612 25.8748 13.8137C26.6557 11.9822 28.4724 10.6981 30.588 10.6981C32.7037 10.6981 34.5204 11.9822 35.3013 13.8137ZM30.588 9.83533C29.1625 9.83533 27.997 8.66976 27.997 7.24425C27.997 5.81873 29.1625 4.65325 30.588 4.65325C32.0135 4.65325 33.1791 5.81873 33.1791 7.24425C33.1791 8.66976 32.0135 9.83533 30.588 9.83533Z" fill="#B902CA"/>
<path fill-rule="evenodd" clip-rule="evenodd" d="M38.2465 21.4995L38.0931 21.283C37.7489 20.7974 37.8639 20.1237 38.3495 19.7796C38.8351 19.4354 39.5088 19.5504 39.8529 20.036L41.5075 22.3709C41.6782 22.6119 41.7427 22.9123 41.6858 23.2021C41.629 23.4919 41.4558 23.7457 41.2066 23.9042L38.7924 25.4408C38.2902 25.7604 37.6231 25.6122 37.3036 25.1101C36.9839 24.6079 37.1322 23.9408 37.6343 23.6212L37.6865 23.588C26.2475 21.3486 15.4239 15.5489 7.26453 5.56026C6.88803 5.09929 6.95653 4.41936 7.41749 4.04286C7.87846 3.66627 8.55839 3.73477 8.93497 4.19574C16.791 13.8131 27.2272 19.3731 38.2465 21.4995ZM30.5884 1.10004C35.0221 1.10004 38.6154 4.69337 38.6154 9.12702C38.6154 13.5607 35.0221 17.154 30.5884 17.154C26.1549 17.154 22.5614 13.5607 22.5614 9.12702C22.5614 4.69337 26.1549 1.10004 30.5884 1.10004ZM35.3017 13.8137C36.4967 12.612 37.235 10.9559 37.235 9.12702C37.235 5.45586 34.2597 2.48043 30.5884 2.48043C26.9173 2.48043 23.9418 5.45586 23.9418 9.12702C23.9418 10.9559 24.6802 12.612 25.8751 13.8137C26.6561 11.9822 28.4728 10.6981 30.5884 10.6981C32.7041 10.6981 34.5208 11.9822 35.3017 13.8137ZM30.5884 9.83533C29.1629 9.83533 27.9974 8.66976 27.9974 7.24425C27.9974 5.81873 29.1629 4.65325 30.5884 4.65325C32.0139 4.65325 33.1795 5.81873 33.1795 7.24425C33.1795 8.66976 32.0139 9.83533 30.5884 9.83533Z" fill="black"/>
</svg>
