<svg width="47" height="47" viewBox="0 0 47 47" fill="none" xmlns="http://www.w3.org/2000/svg">
<path d="M13.2101 19.9887C15.4498 19.9859 17.597 19.0949 19.1806 17.5112C20.7643 15.9275 21.6553 13.7804 21.6581 11.5407C21.1929 0.33358 5.22573 0.336848 4.76221 11.5408C4.76502 13.7804 5.65597 15.9276 7.23966 17.5112C8.82335 19.0949 10.9705 19.9859 13.2101 19.9887ZM12.2772 12.2753C11.5909 12.2687 10.9349 11.9914 10.4519 11.5037C9.96898 11.0161 9.69805 10.3575 9.69806 9.6711C9.69807 8.98475 9.96902 8.32615 10.452 7.8385C10.935 7.35085 11.591 7.07358 12.2773 7.06697H12.4756V6.3985C12.4785 6.2056 12.5572 6.02159 12.6946 5.88621C12.8321 5.75084 13.0173 5.67496 13.2102 5.67497C13.4031 5.67497 13.5883 5.75086 13.7257 5.88625C13.8632 6.02163 13.9419 6.20564 13.9448 6.39854V7.06697H16.0164C16.2086 7.07082 16.3918 7.14991 16.5264 7.28726C16.661 7.42461 16.7364 7.60927 16.7364 7.80159C16.7364 7.99392 16.661 8.17857 16.5263 8.31591C16.3917 8.45326 16.2086 8.53234 16.0163 8.53618H13.9448V10.8061H14.1431C14.4913 10.81 14.8353 10.8837 15.1545 11.0227C15.4738 11.1617 15.7621 11.3633 16.0022 11.6155C16.2423 11.8678 16.4294 12.1656 16.5525 12.4913C16.6756 12.8171 16.7322 13.1642 16.719 13.5122C16.7057 13.8602 16.6229 14.202 16.4753 14.5174C16.3278 14.8329 16.1185 15.1156 15.8599 15.3488C15.6013 15.5821 15.2986 15.7611 14.9696 15.8754C14.6407 15.9898 14.2922 16.037 13.9447 16.0144L13.9448 16.683C13.9441 16.8774 13.8665 17.0636 13.7288 17.2009C13.5911 17.3382 13.4046 17.4152 13.2102 17.4152C13.0157 17.4152 12.8292 17.3382 12.6915 17.2009C12.5538 17.0636 12.4762 16.8774 12.4755 16.683V16.0144H10.404C10.3073 16.0148 10.2115 15.996 10.1221 15.9592C10.0327 15.9224 9.95147 15.8684 9.88301 15.8001C9.81455 15.7319 9.76023 15.6508 9.72317 15.5615C9.68611 15.4722 9.66703 15.3765 9.66703 15.2798C9.66703 15.1832 9.68611 15.0875 9.72317 14.9982C9.76023 14.9089 9.81455 14.8278 9.88301 14.7596C9.95147 14.6913 10.0327 14.6373 10.1221 14.6005C10.2115 14.5637 10.3073 14.5449 10.404 14.5452H12.4755V12.2753H12.2772Z" fill="#B902CA"/>
<path d="M15.2818 13.414C15.279 13.2479 15.2409 13.0842 15.17 12.934C15.0991 12.7838 14.997 12.6504 14.8705 12.5427C14.744 12.435 14.596 12.3554 14.4364 12.3093C14.2768 12.2632 14.1093 12.2516 13.9448 12.2753V14.5452C14.1087 14.569 14.2757 14.5576 14.4348 14.512C14.5939 14.4664 14.7416 14.3875 14.868 14.2805C14.9943 14.1736 15.0966 14.0411 15.1679 13.8917C15.2393 13.7423 15.2781 13.5795 15.2818 13.414Z" fill="#B902CA"/>
<path d="M12.4757 8.53617C12.312 8.51094 12.1448 8.52141 11.9856 8.56685C11.8263 8.6123 11.6788 8.69165 11.5531 8.79946C11.4274 8.90727 11.3265 9.041 11.2573 9.19146C11.1882 9.34193 11.1523 9.50557 11.1523 9.67117C11.1523 9.83678 11.1882 10.0004 11.2573 10.1509C11.3265 10.3013 11.4274 10.4351 11.5531 10.5429C11.6788 10.6507 11.8264 10.73 11.9856 10.7755C12.1449 10.8209 12.3121 10.8314 12.4757 10.8061L12.4757 8.53617Z" fill="#B902CA"/>
<path d="M43.8508 21.6048C43.76 21.5144 43.6472 21.4493 43.5235 21.4158C43.3998 21.3823 43.2696 21.3816 43.1456 21.4138L34.3303 23.7204C34.207 23.7535 34.0946 23.8184 34.0043 23.9087C33.9141 23.9989 33.8492 24.1114 33.8161 24.2346C33.6047 24.8207 34.4494 25.344 34.8078 25.792C30.8783 29.418 26.5451 32.5804 21.8935 35.217C18.415 37.1881 14.7725 38.8545 11.0066 40.1976C8.54522 41.0774 6.03626 41.8181 3.49166 42.4161C3.319 42.4599 3.16814 42.5649 3.06712 42.7116C2.9661 42.8583 2.9218 43.0367 2.94246 43.2137C2.96312 43.3906 3.04733 43.554 3.17944 43.6735C3.31154 43.793 3.48254 43.8604 3.66064 43.8632C16.5417 42.6999 28.8412 37.9598 39.1714 30.1776L40.332 31.4044C40.4217 31.4984 40.5347 31.567 40.6594 31.6032C40.7842 31.6394 40.9163 31.642 41.0424 31.6107C41.1684 31.5794 41.284 31.5152 41.3773 31.4248C41.4705 31.3344 41.5382 31.2209 41.5735 31.0959L44.0344 22.3174C44.0693 22.1929 44.0706 22.0615 44.0384 21.9364C44.0061 21.8113 43.9414 21.6969 43.8508 21.6048Z" fill="black"/>
<path d="M5.86449 28.4366C5.66983 28.4372 5.48332 28.5148 5.34567 28.6524C5.20803 28.7901 5.13045 28.9766 5.12988 29.1713V40.4915C6.94783 40.0074 8.74271 39.4491 10.5145 38.8166C11.18 38.5857 11.8262 38.332 12.4759 38.082V29.1713C12.4753 28.9766 12.3978 28.7901 12.2601 28.6524C12.1225 28.5148 11.936 28.4372 11.7413 28.4366H5.86449Z" fill="#B902CA"/>
<path d="M30.1063 27.9004V17.4176C30.1057 17.2229 30.0281 17.0364 29.8905 16.8988C29.7528 16.7611 29.5663 16.6836 29.3717 16.683H23.4949C23.3002 16.6836 23.1137 16.7611 22.9761 16.8988C22.8384 17.0364 22.7608 17.2229 22.7603 17.4176V33.0059C24.4656 31.9789 26.097 30.9013 27.7703 29.6781C28.5611 29.1021 29.3352 28.5082 30.1063 27.9004Z" fill="#B902CA"/>
<path d="M14.6794 22.5598C14.4848 22.5604 14.2983 22.638 14.1606 22.7756C14.023 22.9132 13.9454 23.0998 13.9448 23.2944V37.4796C16.4648 36.4283 18.9181 35.2238 21.2909 33.8727V23.2944C21.2903 23.0998 21.2127 22.9132 21.0751 22.7756C20.9374 22.638 20.7509 22.5604 20.5562 22.5598H14.6794Z" fill="#B902CA"/>
</svg>
