<svg width="47" height="47" viewBox="0 0 47 47" fill="none" xmlns="http://www.w3.org/2000/svg">
<g clip-path="url(#clip0_41_140)">
<path fill-rule="evenodd" clip-rule="evenodd" d="M11.2576 47H36.8533C37.123 47 37.3429 46.7762 37.3429 46.5017V44.9149C37.3429 43.7681 36.189 42.8298 34.7786 42.8298H30.2017V37.9679H40.6051C42.2588 37.9679 43.6119 36.5908 43.6119 34.9077V19.06L42.6017 18.6034C42.3049 18.7498 41.9999 18.8784 41.6884 18.9887L41.0974 20.5513V32.8132H17.7885C17.7885 39.1446 17.9091 37.0941 17.9091 42.8299H13.3321C11.9218 42.8299 10.7679 43.7682 10.7679 44.915V46.5018C10.768 46.7762 10.9879 47 11.2576 47ZM28.3783 27.3015C28.0488 27.5835 27.557 27.5404 27.2798 27.205C27.0027 26.8696 27.0451 26.3691 27.3747 26.087L30.8766 23.0835L27.3747 20.0801C27.0452 19.7981 27.0027 19.2976 27.2798 18.9621C27.5569 18.6268 28.0487 18.5835 28.3783 18.8656L32.5801 22.4691C32.9551 22.7822 32.9632 23.3698 32.5883 23.6906L28.3783 27.3015ZM20.7362 26.0871C21.0657 26.3691 21.1082 26.8696 20.8311 27.2051C20.554 27.5405 20.0621 27.5836 19.7326 27.3016L15.5225 23.691C15.1477 23.3701 15.1557 22.7826 15.5308 22.4695L19.7326 18.866C20.062 18.5839 20.5539 18.6271 20.8311 18.9625C21.1082 19.2979 21.0658 19.7984 20.7362 20.0805L17.2342 23.0839L20.7362 26.0871ZM23.5193 28.1961C23.4078 28.6209 22.979 28.8732 22.5616 28.7597C22.1441 28.6462 21.8962 28.2098 22.0077 27.785L24.5916 17.9712C24.7031 17.5464 25.1319 17.294 25.5493 17.4076C25.9667 17.5211 26.2146 17.9574 26.1031 18.3822L23.5193 28.1961ZM6.49589 27.5864L7.01328 26.2185H9.20857L9.72596 27.5864C10.4421 27.7598 11.1261 28.0489 11.7529 28.4416L13.0701 27.8463L14.6225 29.4262L14.0376 30.7665C14.4236 31.4045 14.7076 32.1007 14.8779 32.8296L16.222 33.3561V35.5904L14.8781 36.1168C14.7077 36.8458 14.4238 37.5422 14.0377 38.1803L14.6226 39.5204L13.0702 41.1002L11.7531 40.5049C11.1263 40.8977 10.4423 41.1867 9.72616 41.3601L9.20877 42.728H7.01328L6.49599 41.3604C5.77973 41.1869 5.09549 40.898 4.46852 40.5051L3.15174 41.1002L1.59937 39.5203L2.18432 38.1798C1.79834 37.5419 1.51448 36.8457 1.344 36.1169L0 35.5903V33.356L1.34381 32.8296C1.51428 32.1006 1.79814 31.4042 2.18423 30.7661L1.59947 29.4261L3.15184 27.8462L4.46892 28.4415C5.09578 28.0489 5.77983 27.7598 6.49589 27.5864ZM8.11093 30.2361C10.4105 30.2361 12.2742 32.1329 12.2742 34.4732C12.2742 36.8135 10.4105 38.7103 8.11093 38.7103C5.81135 38.7103 3.94761 36.8135 3.94761 34.4732C3.94761 32.1329 5.81135 30.2361 8.11093 30.2361ZM37.274 3.90845L37.7914 2.54053H39.9867L40.5041 3.90845C41.2203 4.08185 41.9042 4.37084 42.5311 4.76367L43.8483 4.16835L45.4006 5.74823L44.8158 7.08856C45.2018 7.72653 45.4857 8.4227 45.6561 9.15166L47 9.67802V11.9123L45.6562 12.4387C45.4857 13.1676 45.2019 13.8641 44.8158 14.5021L45.4006 15.8422L43.8483 17.422L42.5311 16.8267C41.9043 17.2195 41.2203 17.5085 40.5041 17.6819L39.9867 19.0498H37.7913L37.2741 17.6822C36.5579 17.5087 35.8736 17.2198 35.2467 16.8269L33.93 17.422L32.3776 15.8421L32.9626 14.5016C32.5766 13.8636 32.2927 13.1675 32.1222 12.4387L30.7781 11.9121V9.67782L32.122 9.15146C32.2924 8.4224 32.5764 7.72603 32.9624 7.08806L32.3775 5.74794L33.9299 4.16805L35.247 4.76337C35.8738 4.37084 36.5579 4.08185 37.274 3.90845ZM38.8891 6.55801C36.5895 6.55801 34.7258 8.45489 34.7258 10.7951C34.7258 13.1355 36.5895 15.0322 38.8891 15.0322C41.1886 15.0322 43.0524 13.1355 43.0524 10.7951C43.0524 8.45489 41.1886 6.55801 38.8891 6.55801ZM7.01328 24.6241H5.93767L5.31149 26.2797C5.03517 26.3776 4.76384 26.4899 4.49888 26.6162V13.8553C4.49888 12.1722 5.85199 10.7952 7.5057 10.7952H29.2115V13.007L30.0976 13.3542H7.43031C7.20099 13.3542 7.01338 13.5452 7.01338 13.7786L7.01328 24.6241Z" fill="#B902CA"/>
<path fill-rule="evenodd" clip-rule="evenodd" d="M6.49589 27.5864L7.01328 26.2185H9.20857L9.72596 27.5864C10.4421 27.7598 11.1261 28.0489 11.7529 28.4416L13.0701 27.8463L14.6225 29.4262L14.0376 30.7665C14.4236 31.4045 14.7076 32.1007 14.8779 32.8296L16.222 33.3561V35.5904L14.8781 36.1168C14.7077 36.8458 14.4238 37.5422 14.0377 38.1803L14.6226 39.5204L13.0702 41.1002L11.7531 40.5048C11.1263 40.8977 10.4423 41.1867 9.72616 41.3601L9.20877 42.728H7.01328L6.49599 41.3604C5.77973 41.1869 5.09549 40.898 4.46852 40.5051L3.15174 41.1002L1.59937 39.5203L2.18432 38.1798C1.79834 37.5419 1.51448 36.8457 1.344 36.1169L0 35.5903V33.356L1.34381 32.8296C1.51428 32.1006 1.79814 31.4042 2.18423 30.7661L1.59947 29.4261L3.15184 27.8462L4.46892 28.4415C5.09578 28.0489 5.77983 27.7598 6.49589 27.5864ZM8.11093 30.2361C10.4105 30.2361 12.2742 32.1329 12.2742 34.4732C12.2742 36.8135 10.4105 38.7103 8.11093 38.7103C5.81135 38.7103 3.94761 36.8135 3.94761 34.4732C3.94761 32.1329 5.81135 30.2361 8.11093 30.2361ZM37.274 3.90845L37.7914 2.54053H39.9867L40.5041 3.90845C41.2203 4.08185 41.9042 4.37084 42.5311 4.76367L43.8483 4.16835L45.4006 5.74823L44.8158 7.08856C45.2018 7.72653 45.4857 8.4227 45.6561 9.15166L47 9.67802V11.9123L45.6562 12.4387C45.4857 13.1676 45.2019 13.8641 44.8158 14.5021L45.4006 15.8422L43.8483 17.422L42.5311 16.8267C41.9043 17.2195 41.2203 17.5085 40.5041 17.6819L39.9867 19.0498H37.7913L37.2741 17.6822C36.5579 17.5087 35.8736 17.2198 35.2467 16.8269L33.93 17.422L32.3776 15.8421L32.9626 14.5016C32.5766 13.8636 32.2927 13.1675 32.1222 12.4387L30.7781 11.9121V9.67782L32.122 9.15146C32.2924 8.4224 32.5764 7.72603 32.9624 7.08806L32.3775 5.74794L33.9299 4.16805L35.247 4.76337C35.8738 4.37084 36.5579 4.08185 37.274 3.90845ZM38.8891 6.55801C36.5895 6.55801 34.7258 8.45489 34.7258 10.7951C34.7258 13.1355 36.5895 15.0322 38.8891 15.0322C41.1886 15.0322 43.0524 13.1355 43.0524 10.7951C43.0524 8.45489 41.1886 6.55801 38.8891 6.55801Z" fill="black"/>
</g>
<defs>
<clipPath id="clip0_41_140">
<rect width="47" height="47" fill="white"/>
</clipPath>
</defs>
</svg>
